<svg width="45" height="45" viewBox="0 0 45 45" fill="none" xmlns="http://www.w3.org/2000/svg">
<g clip-path="url(#clip0_269_109)">
<path d="M12.0758 45C10.716 44.9601 9.43422 44.1213 8.89209 42.913C8.56788 42.2513 8.53511 41.5036 8.54308 40.9261C8.54574 39.0889 8.54574 37.2286 8.54308 35.3941V35.2789L8.43855 35.232C5.80676 34.0609 3.55056 32.0846 2.08452 29.6672C0.679595 27.3853 -0.0591848 24.6499 0.00370887 21.9667C0.0577443 19.443 0.788551 16.9769 2.11818 14.8367C3.58954 12.4397 5.83422 10.4846 8.43767 9.33041L8.54308 9.28347V9.16831C8.54574 7.65709 8.54485 6.14409 8.54396 4.63287V3.89764C8.54131 3.14291 8.66267 2.53524 8.9169 2.03829C9.46877 0.859252 10.7382 0.0416339 12.0775 0H34.876C35.1223 0.0469488 35.3083 0.239173 35.5041 0.442028C35.5475 0.486319 35.59 0.531496 35.6334 0.574016L37.8639 2.80453C39.896 4.8375 41.9281 6.87047 43.9629 8.90079C44.001 8.94154 44.0444 8.98406 44.0886 9.02658C44.2304 9.16565 44.3641 9.29764 44.4315 9.45886C44.4802 9.64488 44.4775 9.84419 44.4758 10.0541C44.4749 10.1285 44.474 10.203 44.4758 10.2774C44.474 15.2371 44.474 20.1995 44.474 25.1628C44.474 30.5336 44.4749 35.9052 44.4722 41.276C44.4882 42.3788 44.0204 43.4374 43.2223 44.1097C42.6261 44.6368 41.8165 44.9513 40.9404 44.9991H12.0758V45ZM40.7243 43.8422C40.7455 43.8431 40.773 43.8431 40.8005 43.8431C41.5534 43.8431 42.2709 43.5233 42.72 42.9874C43.1142 42.5445 43.3268 41.935 43.3162 41.2751C43.3171 36.5997 43.3171 31.9217 43.3171 27.2427C43.3171 21.631 43.3171 16.0193 43.318 10.4076V10.2313L43.1417 10.2304C42.4348 10.2278 41.727 10.2269 41.0201 10.2269C40.5755 10.2269 38.7985 10.2278 38.3547 10.2278C37.6992 10.2278 37.0437 10.2269 36.3873 10.2251C35.8602 10.2251 35.3491 10.0408 34.9832 9.72106C34.5111 9.32776 34.2374 8.70856 34.2471 8.06191C34.2453 6.63661 34.2453 5.21486 34.2453 3.79311C34.2453 2.97372 34.2453 2.15433 34.2453 1.33494V1.15778H34.0682C31.4514 1.15689 28.8338 1.15689 26.2162 1.15689H12.7392L12.6639 1.156C12.5966 1.15512 12.5293 1.15512 12.462 1.15512C12.066 1.15512 11.6072 1.17106 11.1828 1.36417C10.2687 1.73445 9.65656 2.70797 9.70086 3.72845C9.69908 5.33533 9.69997 6.9502 9.70086 8.56506V8.81398L9.92851 8.74577C11.3387 8.32234 12.7871 8.10709 14.2319 8.10709C15.3143 8.10709 16.3826 8.22933 17.4058 8.47116C21.0412 9.29055 24.2576 11.5928 26.2339 14.7871C27.9073 17.4437 28.6381 20.6504 28.2917 23.8181C28.095 25.6934 27.4776 27.5944 26.5068 29.3156L26.4403 29.4325L26.5351 29.5273C27.3368 30.3307 28.1402 31.1324 28.9428 31.9349C30.3867 33.378 31.8802 34.8706 33.3445 36.3428C34.2861 37.2729 34.6333 38.739 34.2081 39.9915C33.8272 41.198 32.735 42.1645 31.4886 42.401C31.2619 42.447 31.0298 42.471 30.7968 42.471C29.9358 42.471 29.0774 42.153 28.4396 41.5975C26.9745 40.1563 25.4978 38.677 24.0699 37.2464C23.2097 36.3853 22.3212 35.4942 21.4434 34.6217L21.3486 34.5269L21.2317 34.5924C19.46 35.5872 17.513 36.2091 15.5996 36.3898C15.1505 36.4349 14.6916 36.4589 14.2327 36.4589C12.8136 36.4589 11.3662 36.2427 9.9294 35.8166L9.70086 35.7484L9.70174 35.9867C9.7044 36.6759 9.70263 37.3757 9.70086 38.0533C9.6982 39.1961 9.69554 40.3778 9.71326 41.54C9.75932 42.7881 10.8622 43.8396 12.1227 43.8396C12.1466 43.8396 12.1705 43.8396 12.1945 43.8387C16.108 43.8413 20.0269 43.8422 23.9467 43.8422C26.3695 43.8422 36.0613 43.8413 38.484 43.8413L40.7243 43.8422ZM24.2266 32.307C23.681 32.8075 23.1176 33.3239 22.5161 33.7677L22.3505 33.89L22.4957 34.0352C23.6757 35.2187 24.8795 36.419 26.0435 37.5803C26.9674 38.5016 27.8913 39.4228 28.8135 40.3459C29.1492 40.6834 29.4885 40.9066 29.8481 41.0297C30.1023 41.1236 30.3787 41.1723 30.6631 41.1723C31.2619 41.1723 31.8572 40.9518 32.2948 40.5664C33.0406 39.9224 33.3161 38.7939 32.9476 37.8859C32.7678 37.389 32.3984 37.0249 32.0405 36.6723C31.9821 36.6148 31.9236 36.5572 31.8669 36.4996L30.2184 34.8493C28.7975 33.4267 27.3775 32.0032 25.9558 30.5823L25.8123 30.4388L25.6891 30.5991C25.1895 31.2546 24.6456 31.8561 24.2266 32.307ZM11.1005 9.63957C7.31621 10.5272 3.97221 13.2839 2.37064 16.8343C1.24918 19.2464 0.901937 22.0261 1.39357 24.6588C1.85154 27.1586 3.08107 29.5352 4.85538 31.3512C6.41089 32.9607 8.37212 34.1442 10.5264 34.774C11.7073 35.1248 12.9412 35.3029 14.1938 35.3029C15.5792 35.3029 16.9398 35.0858 18.2376 34.6589C20.4973 33.9307 22.5214 32.5719 24.0902 30.7311C26.1976 28.3022 27.3341 25.0751 27.2075 21.8764C27.1375 20.1331 26.7353 18.411 26.0452 16.8954C24.8237 14.1732 22.6809 11.9471 20.0128 10.6281C18.2455 9.73435 16.2259 9.26221 14.1734 9.26221C13.7225 9.26221 13.2663 9.28524 12.8181 9.33041C12.6923 9.34902 12.5754 9.36585 12.4575 9.38179C12.0093 9.44469 11.5469 9.50935 11.1005 9.63957ZM36.3926 9.06821C37.1695 9.07087 37.9472 9.07175 38.725 9.07175C39.4832 9.07175 40.2415 9.07087 41.0007 9.06998L42.4968 9.06821C42.4968 9.06821 40.7482 7.31959 40.0254 6.59675C38.5868 5.15728 37.1482 3.7187 35.707 2.281L35.4049 1.97982L35.404 3.55748C35.4031 5.0315 35.4022 6.55512 35.4058 8.05394C35.3881 8.30994 35.4811 8.56772 35.6627 8.76348C35.8425 8.95837 36.0923 9.06998 36.3465 9.06998C36.3598 9.06998 36.3758 9.06909 36.3926 9.06821Z" fill="#1B2D4F"/>
<path d="M13.8235 5.34154C13.5826 5.34154 13.3009 5.22461 13.215 4.96329L13.2105 4.95177C13.1485 4.80118 13.168 4.61781 13.2628 4.4628C13.3558 4.31043 13.5064 4.21033 13.6659 4.19705L13.6756 4.19616C13.8014 4.17756 13.9316 4.17756 14.0698 4.17756H14.1495C15.5119 4.17933 16.8761 4.18022 18.2394 4.18022C19.2457 4.18022 23.2691 4.17933 24.2745 4.17933C26.7327 4.17933 28.6106 4.1811 30.3646 4.18642H30.3841C30.5577 4.18642 30.7286 4.27766 30.8403 4.43179C30.9466 4.57707 30.9793 4.7498 30.9297 4.90571L30.9262 4.919C30.8624 5.1936 30.5692 5.34154 30.3256 5.34154C30.3114 5.34154 30.2972 5.34154 30.2831 5.33976H30.2716C27.576 5.34065 24.8804 5.34065 22.1848 5.34065H13.8802H13.874C13.8563 5.34154 13.8404 5.34154 13.8235 5.34154Z" fill="#1B2D4F"/>
<path d="M26.0035 10.2331C25.7794 10.2331 25.4861 10.1852 25.3568 9.95935L25.3533 9.95315L25.3488 9.94695C25.2479 9.7999 25.2372 9.60148 25.3196 9.41722C25.3993 9.23917 25.5473 9.1187 25.7165 9.09301C26.4836 9.0753 26.7883 9.06644 27.8168 9.06644C28.3908 9.06644 28.9648 9.06909 29.5388 9.07175C30.1128 9.07441 30.6868 9.07707 31.2608 9.07707H31.3423H31.3663C31.5443 9.07707 31.7162 9.17539 31.8251 9.34104C31.9305 9.49961 31.9536 9.68829 31.8871 9.84596L31.8827 9.85659C31.7932 10.1135 31.5115 10.2304 31.2883 10.2304C31.2759 10.2304 31.2626 10.2304 31.2502 10.2295H31.2405C30.7666 10.2304 30.2918 10.2304 29.8178 10.2304L27.4669 10.2295C26.8344 10.2295 26.2019 10.2304 25.5694 10.2322H25.5606C25.5322 10.2322 26.0336 10.2331 26.0035 10.2331Z" fill="#1B2D4F"/>
<path d="M14.1867 33.4417C12.7667 33.4417 11.329 33.1645 10.0295 32.6392C7.7122 31.7179 5.75541 30.0171 4.51968 27.8504C3.39645 25.898 2.88621 23.6268 3.08198 21.4538C3.19537 19.7026 3.75078 17.9699 4.68976 16.4392C6.47647 13.4761 9.7372 11.4599 13.2008 11.1774C13.5321 11.1464 13.8669 11.1304 14.2 11.1304C16.535 11.1304 18.8621 11.8905 20.7516 13.2715C22.5028 14.5391 23.8821 16.3568 24.6333 18.3907C25.5775 20.886 25.5687 23.749 24.6102 26.2453C24.1425 27.489 23.4489 28.6423 22.5462 29.6743C20.9137 31.5283 18.6699 32.7986 16.2285 33.2522C15.5615 33.378 14.8741 33.4417 14.1867 33.4417ZM14.2044 12.2979C13.7801 12.2979 13.354 12.3254 12.9368 12.3803C11.0659 12.6151 9.24025 13.4123 7.79901 14.6241C6.0185 16.0928 4.76682 18.2471 4.36466 20.5326C3.97489 22.6346 4.29468 24.8545 5.26377 26.7803C5.82981 27.8965 6.59517 28.893 7.54035 29.7416C9.23405 31.2608 11.5133 32.1812 13.7952 32.2662C13.9342 32.2724 14.0777 32.276 14.2195 32.276C16.1887 32.276 18.2004 31.647 19.8826 30.5052C21.7233 29.2491 23.0928 27.3712 23.7377 25.2186C24.3826 23.1316 24.3152 20.8479 23.5472 18.7919C22.7978 16.7483 21.3805 14.9944 19.5592 13.8526C17.9931 12.8498 16.0912 12.2979 14.2044 12.2979Z" fill="#1B2D4F"/>
<path d="M29.2886 14.7623C29.2727 14.7623 29.263 14.7632 29.2532 14.7632C28.9999 14.7632 28.789 14.6604 28.6898 14.4877L28.6845 14.4788C28.5977 14.3477 28.5791 14.1777 28.6322 14.0111C28.6854 13.8455 28.7997 13.7179 28.9467 13.6612C29.092 13.6081 29.2603 13.6036 29.4065 13.6036L29.5934 13.6045H29.6563C30.5226 13.6054 30.8601 13.6063 31.7282 13.6063C32.4705 13.6063 35.4407 13.6054 36.183 13.6054C37.4303 13.6054 38.6775 13.6063 39.9248 13.609H39.9363C39.9478 13.6081 39.9584 13.6081 39.9699 13.6081C40.1347 13.6081 40.3012 13.6887 40.4164 13.8233C40.5236 13.9491 40.5696 14.1006 40.5457 14.2494L40.544 14.2618C40.52 14.5329 40.2508 14.7623 39.9567 14.7623C39.9567 14.7623 39.9389 14.7623 39.9301 14.7614C38.3267 14.7632 36.7322 14.7641 35.1378 14.7641L29.2886 14.7623Z" fill="#1B2D4F"/>
<path d="M11.4411 18.5448C11.1984 18.5448 10.9061 18.3951 10.8441 18.1178L10.8405 18.1045C10.7936 17.9531 10.8255 17.783 10.9282 17.6386C11.031 17.4933 11.1878 17.4038 11.3472 17.3976C11.8911 17.3888 12.4704 17.3852 13.2234 17.3852C13.5751 17.3852 13.9267 17.3861 14.2784 17.387C14.631 17.3879 14.9826 17.3888 15.3343 17.3888C15.6789 17.3888 16.0235 17.3879 16.3681 17.3852L16.4584 17.3844C16.6772 17.3844 16.9226 17.3968 17.0705 17.5465L17.0785 17.5535C17.1901 17.6536 17.2521 17.8069 17.2495 17.9734C17.2468 18.14 17.1795 18.2906 17.0652 18.3862L17.0573 18.3933C16.9501 18.4952 16.7853 18.543 16.5399 18.5439H13.9604C13.1384 18.5439 12.3172 18.5439 11.496 18.5421H11.4836C11.4686 18.5448 11.4553 18.5448 11.4411 18.5448Z" fill="#1B2D4F"/>
<path d="M31.5518 20.8116C31.4251 20.8116 31.1151 20.7859 30.9689 20.5512L30.9619 20.5414C30.868 20.4103 30.844 20.2305 30.8998 20.0587C30.9557 19.8859 31.0806 19.7522 31.2356 19.6999C31.364 19.6565 31.5102 19.6538 31.6634 19.6521H31.6873C32.4651 19.6538 32.7149 19.6547 33.4962 19.6547C34.0826 19.6547 36.4292 19.6538 37.0156 19.6538C37.9873 19.6538 38.9582 19.6547 39.93 19.6583H39.9424C39.953 19.6574 39.9645 19.6574 39.9751 19.6574C40.1328 19.6574 40.2949 19.7336 40.4074 19.8602C40.5146 19.9807 40.5642 20.1269 40.5465 20.2721L40.5456 20.2854C40.5332 20.5698 40.2657 20.809 39.9619 20.809H39.9433C38.7979 20.8125 37.6587 20.8134 36.5195 20.8134C35.8844 20.8134 33.3438 20.8125 32.7087 20.8125C32.1604 20.8125 32.1444 20.8125 31.5961 20.8134C31.5775 20.8116 31.5642 20.8116 31.5518 20.8116Z" fill="#1B2D4F"/>
<path d="M8.42249 23.0793C8.18331 23.0793 7.90162 22.9411 7.82544 22.6763L7.8219 22.6657C7.76963 22.5195 7.79444 22.3441 7.88656 22.1971C7.97957 22.0491 8.12131 21.9552 8.27544 21.9384C8.41363 21.9207 8.54739 21.918 8.66166 21.918C8.71127 21.918 8.76176 21.9189 8.81137 21.9189C8.86274 21.9198 8.91324 21.9198 8.96461 21.9198C8.96461 21.9198 12.5256 21.9198 14.2831 21.9198C16.0406 21.9198 19.5759 21.9189 19.5759 21.9189C19.8248 21.9189 20.0047 21.9791 20.1101 22.0978L20.1198 22.1085C20.2235 22.2086 20.2793 22.3574 20.274 22.5177C20.2686 22.6798 20.2013 22.826 20.0897 22.9199L20.08 22.9287C19.9754 23.0306 19.8089 23.0776 19.5547 23.0776H12.4291C11.1119 23.0776 9.79463 23.0776 8.47741 23.0767H8.46589C8.45172 23.0793 8.43755 23.0793 8.42249 23.0793Z" fill="#1B2D4F"/>
<path d="M16.5501 27.613H13.2796C12.6825 27.613 12.0855 27.613 11.4885 27.6121C11.4725 27.6121 11.4637 27.613 11.4539 27.613C11.1952 27.613 10.9694 27.4854 10.8799 27.2879L10.8755 27.279C10.8081 27.1506 10.8011 26.9911 10.856 26.8414C10.9109 26.69 11.0199 26.5713 11.1554 26.5146C11.2847 26.4596 11.4459 26.457 11.5877 26.4534C12.4708 26.4543 13.3584 26.4552 14.2451 26.4552C14.9804 26.4552 15.7156 26.4543 16.4509 26.4534C16.6457 26.4552 16.869 26.457 17.0151 26.5721L17.024 26.5792C17.1409 26.6598 17.2206 26.7963 17.2437 26.9531C17.2667 27.1098 17.2286 27.264 17.1391 27.3747L17.1321 27.3845C16.9939 27.5829 16.7263 27.613 16.5793 27.613H16.5501Z" fill="#1B2D4F"/>
<path d="M30.7455 26.8609C30.4913 26.8609 30.2007 26.713 30.1361 26.4313L30.1325 26.4189C30.0856 26.2665 30.1175 26.0956 30.2202 25.9521C30.3256 25.805 30.4868 25.7138 30.6516 25.7093C31.7757 25.7014 32.4419 25.6978 33.9983 25.6978C34.7051 25.6978 35.4129 25.6987 36.1198 25.6996C36.8267 25.7005 37.5345 25.7014 38.2414 25.7014C38.7764 25.7014 39.3106 25.7014 39.8447 25.6996L39.8571 25.6987C39.8739 25.6978 39.8908 25.6969 39.9085 25.6969C40.1716 25.6969 40.4807 25.8546 40.533 26.1478L40.5339 26.1549L40.5357 26.162C40.5764 26.3153 40.5392 26.4818 40.4329 26.62C40.3177 26.7697 40.145 26.8591 39.9714 26.8591C39.9581 26.8591 39.9448 26.8583 39.9315 26.8574L39.9174 26.8565C38.5877 26.8591 37.2572 26.86 35.9276 26.86L30.7969 26.8591H30.7907C30.7765 26.8609 30.7606 26.8609 30.7455 26.8609Z" fill="#1B2D4F"/>
<path d="M39.7536 32.9076C39.0326 32.9058 38.3115 32.9058 37.5904 32.9058L35.1509 32.9067C34.5308 32.9067 34.4413 32.9067 33.8213 32.9058H33.8115C33.7982 32.9067 33.7858 32.9067 33.7725 32.9067C33.5466 32.9067 33.265 32.7898 33.179 32.5338L33.1746 32.5214C33.1126 32.3752 33.1294 32.1954 33.2198 32.0412C33.3075 31.8915 33.4501 31.7906 33.6025 31.7693C34.3359 31.7525 34.5822 31.7454 35.5911 31.7454C36.0606 31.7454 36.531 31.7471 37.0005 31.7489C37.4709 31.7507 37.9412 31.7525 38.4116 31.7525C38.7987 31.7525 39.1858 31.7516 39.5738 31.748L39.7563 31.7471C39.9813 31.7471 40.2134 31.7596 40.3613 31.9039L40.3693 31.911C40.4836 32.0102 40.5482 32.1635 40.5473 32.3318C40.5456 32.5001 40.4791 32.6516 40.364 32.7481L40.3551 32.7561C40.2081 32.8961 39.9671 32.9076 39.7536 32.9076Z" fill="#1B2D4F"/>
</g>
<defs>
<clipPath id="clip0_269_109">
<rect width="44.4765" height="45" fill="white"/>
</clipPath>
</defs>
</svg>
