<svg width="55" height="50" viewBox="0 0 55 50" fill="none" xmlns="http://www.w3.org/2000/svg">
<g clip-path="url(#clip0_350_128)">
<path d="M19.1275 7.75481C18.6944 7.75481 18.2774 7.6787 17.8894 7.52862C16.7069 7.11376 15.7754 6.1093 15.4527 4.90545C15.1997 4.01248 15.2951 3.0048 15.7143 2.13863C16.2181 1.12238 17.2322 0.356974 18.4254 0.0921916C18.6837 0.0300159 18.9485 0 19.2165 0C20.6562 0 22.0369 0.864028 22.6512 2.14935C23.2032 3.23421 23.1925 4.58707 22.6254 5.68586C21.9715 6.92295 20.5651 7.75481 19.1275 7.75481ZM19.1822 1.18348C18.9646 1.18348 18.7491 1.21028 18.5411 1.26174C17.646 1.48579 16.8892 2.19652 16.6148 3.07341C16.3435 3.90206 16.5161 4.84756 17.065 5.54007C17.5549 6.17684 18.3589 6.57347 19.1607 6.57347H19.1929C20.4171 6.56811 21.5706 5.64513 21.8171 4.47236C22.0369 3.54509 21.6992 2.49346 20.9756 1.85991C20.5007 1.43111 19.8457 1.18348 19.1822 1.18348Z" fill="#1B2D4F"/>
<path d="M0.579949 50C0.295871 50 0.0879036 49.776 0 49.5444V46.3381C0.142575 44.7076 1.22422 43.2153 2.69607 42.6204C3.69195 42.2355 4.71142 41.8518 5.69658 41.4798C6.68603 41.1067 7.70872 40.7208 8.7121 40.3338L9.01119 40.2181L8.79036 39.9854C8.50092 39.681 8.20398 39.3755 7.91668 39.0807C7.5372 38.6905 7.14378 38.2874 6.76751 37.8832C6.03319 37.076 6.00103 35.7339 6.69675 34.8945C7.46323 33.9908 8.25436 33.0764 9.01977 32.1931C9.6576 31.4556 10.318 30.6934 10.9622 29.9387L11.0115 29.8808L11.0126 29.8047C11.0566 27.5985 11.1048 25.3924 11.153 23.1862C11.153 23.0897 11.1563 22.9975 11.1605 22.9053C11.1734 22.6052 11.1873 22.2943 11.0641 21.9866C10.5763 20.7195 10.5324 19.3088 10.9397 18.0181C11.2034 17.1401 11.4628 16.2643 11.7212 15.3874C12.1103 14.0732 12.5123 12.7139 12.9197 11.3814C13.3656 9.99315 14.7871 8.9844 16.2975 8.9844C16.5795 8.9844 16.8582 9.02085 17.1241 9.09267C18.6774 9.54076 20.2575 10.0114 21.784 10.468C22.6266 10.72 23.4692 10.9708 24.3129 11.2206L24.4694 11.2667L24.5551 11.1284C24.9378 10.5141 25.3237 9.88595 25.6957 9.2792C26.1406 8.55453 26.6005 7.80413 27.0604 7.07196C27.442 6.477 28.1667 6.09108 28.9063 6.09108C29.1218 6.09108 29.333 6.12324 29.5313 6.18756C29.69 6.23366 29.8422 6.29905 29.988 6.38267L30.1316 6.46521L30.2474 6.34729C31.0632 5.51757 31.9991 4.78539 32.7237 4.24082C35.0232 2.43344 37.9411 1.4397 40.9427 1.4397C41.5141 1.4397 42.0887 1.47722 42.6504 1.55011C46.1108 1.96819 49.3461 3.79701 51.5297 6.56598C53.3478 8.83968 54.3877 11.7116 54.4563 14.6531V15.5707C54.2901 18.6474 53.0959 21.5921 51.0924 23.8637L50.5682 24.4747L51.3271 24.2078C51.6627 24.0856 52.0003 23.9559 52.3273 23.8294C52.77 23.66 53.2267 23.4842 53.6802 23.3245C53.7466 23.2977 53.8077 23.2859 53.8699 23.2859C54.1325 23.2859 54.392 23.5035 54.4552 23.7736V23.972C54.3898 24.3118 54.0757 24.4458 53.6083 24.6098C53.5451 24.6323 53.4818 24.6538 53.4218 24.6773C44.118 28.1967 34.8141 31.7182 25.5113 35.2397C18.0878 38.0505 10.6642 40.8602 3.23957 43.6699C2.3273 44.0151 1.58977 44.8115 1.31319 45.7495C1.14382 46.3895 1.1599 47.0392 1.17705 47.6673C1.18455 47.9739 1.19313 48.2902 1.17919 48.5957L1.16847 48.8197H1.39359C10.0039 48.8208 18.6098 48.8208 27.2201 48.8208H52.9576C52.9898 48.8219 53.0262 48.8219 53.0627 48.8219C53.1442 48.8219 53.2267 48.8208 53.3082 48.8187C53.3875 48.8176 53.4668 48.8154 53.5462 48.8154C53.6877 48.8154 53.8731 48.8197 54.0543 48.853C54.2891 48.9087 54.4091 49.1692 54.4574 49.3064V49.523C54.3759 49.8006 54.1336 49.9989 53.872 49.9989C53.8581 49.9989 53.8442 49.9989 53.8292 49.9968L53.812 49.9957C44.9509 49.9968 36.0898 49.9979 27.2276 49.9979C18.3654 49.9979 9.50538 49.9968 0.644269 49.9957H0.635693L0.626045 49.9968C0.611037 49.9989 0.596029 50 0.579949 50ZM8.52665 34.5708C8.41516 34.7016 8.3026 34.8313 8.18897 34.9599C7.99601 35.1797 7.79662 35.4069 7.61117 35.6417C7.26491 36.0684 7.29922 36.7437 7.68835 37.1425C8.13323 37.612 8.59311 38.0848 9.03799 38.5415C9.26418 38.7741 9.49145 39.0078 9.71764 39.2415L10.1003 39.6381L10.0864 39.0871C10.08 38.847 10.0596 38.6058 10.0403 38.3731C10.0081 37.9937 9.97813 37.6345 10.0028 37.2754C10.1046 37.0192 10.3104 36.8145 10.5291 36.5979C10.6588 36.4682 10.7939 36.3353 10.9097 36.1863L11.0512 36.004L10.8582 35.8765C10.3201 35.5195 9.78088 35.1657 9.2406 34.812L8.651 34.425L8.52665 34.5708ZM12.3322 36.3867C12.1575 36.5829 11.9742 36.778 11.7962 36.9678C11.6097 37.1672 11.4167 37.3719 11.2313 37.5809L11.1713 37.6485L11.1777 37.7385C11.197 37.9979 11.2141 38.2584 11.2313 38.5189C11.2431 38.7033 11.2549 38.8888 11.2677 39.0732L11.2881 39.3605L11.5572 39.2586C13.2745 38.6111 14.9908 37.9604 16.7081 37.3097C18.091 36.7855 19.4739 36.2613 20.8567 35.7393L21.1119 35.6428L20.9586 35.4177C20.6348 34.9428 20.4826 34.4143 20.5298 33.9297C20.7045 32.1845 20.8835 30.4382 21.0636 28.693C21.1773 27.5824 21.292 26.4708 21.4045 25.3602L21.4324 25.0836L21.158 25.1265C20.6959 25.1983 20.2328 25.2723 19.7708 25.3473C19.1608 25.4449 18.5509 25.5424 17.9398 25.6357L17.7758 25.6604L17.7597 25.8254C17.6954 26.4644 17.6418 27.114 17.5893 27.7422C17.5443 28.2792 17.4982 28.8345 17.4457 29.3791C17.3427 30.3986 16.9204 31.388 16.2547 32.1652C15.9491 32.5083 15.6361 32.8438 15.3971 33.0979L15.2491 33.2554L15.2577 33.2629L12.492 36.2345L12.478 36.2217L12.3322 36.3867ZM12.3065 24.449C12.2851 25.3816 12.2658 26.3132 12.2465 27.2458C12.2272 28.1785 12.2068 29.11 12.1864 30.0427V30.0566C12.1939 30.2367 12.1243 30.4157 11.9892 30.5604L11.5733 31.0418C10.9108 31.8072 10.2493 32.5737 9.589 33.3412L9.43034 33.5256L9.63295 33.6596C10.036 33.9265 10.4412 34.1924 10.8464 34.4582C11.1455 34.6544 11.4446 34.8506 11.7437 35.0478L11.8949 35.1475L14.0646 32.817L14.0689 32.8106C14.28 32.5608 14.5095 32.3196 14.7303 32.0848C14.9533 31.849 15.1848 31.6046 15.4003 31.3505C15.8955 30.7534 16.2075 29.9944 16.2782 29.2119C16.3747 28.1324 16.4658 27.0507 16.5537 26.0055L16.572 25.7836L16.349 25.774C15.0079 25.7129 13.698 25.1876 12.6613 24.2914L12.3172 23.9945L12.3065 24.449ZM23.4295 30.9603C23.0232 30.9603 22.6159 30.9603 22.2096 30.9614H22.0156L21.9963 31.1543C21.9598 31.5317 21.9202 31.9079 21.8805 32.2842C21.8183 32.8738 21.7551 33.4838 21.7025 34.0852C21.6832 34.3146 21.7626 34.5397 21.9277 34.7198C22.1013 34.9085 22.35 35.0221 22.5944 35.0221C22.7027 35.0221 22.8078 35.0006 22.9064 34.9588C23.6203 34.6951 24.3536 34.4164 25.0622 34.1463C25.4417 34.0015 25.8211 33.8568 26.2006 33.7132L26.5941 33.5642L26.2424 33.3326C26.0634 33.2147 25.878 33.1054 25.6989 32.9992C25.4309 32.8406 25.1769 32.6905 24.9378 32.5136C24.7213 32.3078 24.7459 32.0216 24.8135 31.5788C24.8328 31.4491 24.8542 31.3151 24.8606 31.1854L24.8724 30.9603L24.6462 30.9592C24.2432 30.9603 23.8369 30.9603 23.4295 30.9603ZM19.6175 15.1955C19.5125 15.5536 19.4053 15.9106 19.2991 16.2686C19.1351 16.8185 18.9647 17.3867 18.8049 17.9484L18.732 18.2036L19.9423 18.2872C21.0422 18.3622 22.1421 18.4383 23.2419 18.5177C23.3513 18.5262 23.4617 18.5327 23.5721 18.5402C24.106 18.5745 24.6109 18.6056 25.0772 18.7974C26.0602 19.1694 26.8095 20.0356 27.0379 21.0615C27.1794 21.6146 27.1043 22.2042 27.0314 22.7735L27.025 22.8281L26.6637 25.9251C26.4418 27.8344 26.2189 29.7436 25.9959 31.6528L25.9809 31.7825L26.0891 31.8554C26.2564 31.968 26.4333 32.0709 26.6037 32.1706C27.0164 32.4118 27.4066 32.639 27.6821 32.9949L27.7797 33.1204L27.9276 33.0646C31.3505 31.7718 35.333 30.2656 39.2811 28.767L40.039 28.4701L39.2318 28.3532C36.2409 27.9684 33.4366 26.5769 31.3366 24.4329C29.0221 22.1067 27.6071 18.9014 27.4527 15.6361L27.4334 15.2352L27.1108 15.4732C26.3957 16.0017 25.5178 16.2922 24.6398 16.2922C24.2968 16.2922 23.9602 16.2472 23.6396 16.1593C23.0275 15.9835 22.4058 15.7969 21.8033 15.6168C21.174 15.4282 20.5233 15.2331 19.8801 15.0497L19.6754 14.9919L19.6175 15.1955ZM25.0268 29.7822L25.0504 29.5806C25.3452 27.0657 25.6389 24.5519 25.9294 22.0359C26.0087 21.5257 25.8565 20.9747 25.5103 20.533C25.1651 20.0935 24.6688 19.8158 24.1488 19.7708C19.8694 19.4524 15.9298 19.1866 12.105 18.9572L11.9045 18.9454L11.8788 19.1437C11.807 19.7033 11.8059 20.1289 11.8723 20.5266C12.2047 22.7756 14.3101 24.6087 16.5655 24.6087C16.7328 24.6087 16.9 24.598 17.0651 24.5787C17.8862 24.4565 18.7138 24.3236 19.5146 24.1939C20.3315 24.062 21.1762 23.9259 22.007 23.8026L22.0188 23.8004C22.0499 23.794 22.081 23.7908 22.112 23.7908C22.2621 23.7908 22.4122 23.868 22.5248 24.0031C22.6513 24.1553 22.7081 24.3504 22.6759 24.5251L22.6738 24.5337L22.6727 24.5423C22.588 25.3763 22.5023 26.2092 22.4165 27.0422C22.3307 27.8751 22.246 28.708 22.1614 29.542L22.1378 29.7768L22.3736 29.7779C22.6695 29.78 22.9664 29.78 23.2623 29.78L24.3782 29.779C24.5315 29.7811 25.0268 29.7822 25.0268 29.7822ZM40.9052 2.61889C38.2509 2.61889 35.6428 3.49257 33.562 5.07912L33.5535 5.08555L33.5459 5.09306C33.5299 5.10699 33.5138 5.12093 33.4966 5.13379C32.7527 5.6923 31.7965 6.43841 31.0021 7.26492L30.9056 7.36461L30.9571 7.49325C31.0203 7.65191 31.0643 7.81378 31.0868 7.97351C31.1715 8.47734 31.0568 9.02621 30.7641 9.52576C30.4993 10.006 30.2388 10.483 29.9794 10.959C29.6267 11.6065 29.2612 12.2754 28.8967 12.9304C28.7059 13.2456 28.6834 13.6122 28.663 13.9359C28.6587 14.0088 28.6544 14.0817 28.648 14.1525C28.5387 15.7744 28.7616 17.4382 29.2923 18.969C30.2806 21.8548 32.3957 24.3429 35.095 25.7965C36.8691 26.7645 38.8973 27.2759 40.9566 27.2759C41.7639 27.2759 42.57 27.1965 43.3515 27.0389C46.3563 26.4547 49.1188 24.6816 50.9283 22.1742C52.6178 19.8641 53.4615 16.8989 53.2406 14.0399C53.038 11.0812 51.6884 8.19219 49.538 6.11574C47.3715 3.99212 44.401 2.72073 41.3887 2.62854C41.2311 2.62211 41.0671 2.61889 40.9052 2.61889ZM16.2729 10.169C16.1571 10.169 16.0435 10.1786 15.9352 10.1968C15.0412 10.319 14.2629 10.9837 14.0067 11.8498C13.4289 13.7773 12.8575 15.709 12.3204 17.5218L12.2433 17.7812L12.5134 17.7962C13.5114 17.8519 14.5255 17.9195 15.5064 17.9849C16.1207 18.0256 16.7349 18.0663 17.3481 18.1049L17.5185 18.1157L17.5679 17.9527C17.6922 17.5346 17.8166 17.1166 17.9409 16.6985C18.1264 16.0724 18.3118 15.4464 18.5005 14.8214L18.5498 14.6574L18.4008 14.5727C17.8423 14.2543 17.4253 13.7869 17.228 13.2574C16.9032 12.4512 17.0651 11.4618 17.629 10.7907L17.823 10.5592L17.54 10.452C17.1669 10.3126 16.7242 10.169 16.2729 10.169ZM19.238 13.6251C19.7537 13.7784 20.2693 13.9317 20.7849 14.085C21.8237 14.3948 22.8967 14.7142 23.9548 15.0219C24.1831 15.0841 24.419 15.1162 24.658 15.1162C25.6829 15.1162 26.6584 14.5534 27.144 13.684C27.6414 12.7825 28.1345 11.8799 28.6276 10.9762C29.0039 10.2869 29.3812 9.59758 29.7586 8.90829C29.9558 8.5749 29.9912 8.20613 29.8529 7.90383C29.7028 7.53077 29.3062 7.27135 28.886 7.27135C28.7338 7.27135 28.589 7.30458 28.4572 7.36997C28.216 7.47503 28.067 7.67442 27.9426 7.87596C27.3895 8.77858 26.8363 9.67905 26.2821 10.5785C25.9509 11.1166 25.6196 11.6547 25.2884 12.194C25.1908 12.3665 25.0064 12.5445 24.7684 12.5477C24.5905 12.5413 24.405 12.4823 24.2078 12.4191C24.1242 12.3923 24.0406 12.3655 23.9559 12.343C23.4413 12.1907 22.9225 12.0364 22.4036 11.882C21.576 11.6354 20.7217 11.3803 19.878 11.1348C19.7697 11.0994 19.6486 11.0801 19.5253 11.0801C18.8789 11.0801 18.3075 11.5883 18.2507 12.2143C18.1607 12.8447 18.6023 13.475 19.238 13.6251Z" fill="#1B2D4F"/>
</g>
<defs>
<clipPath id="clip0_350_128">
<rect width="54.4574" height="50" fill="white"/>
</clipPath>
</defs>
</svg>
