<svg width="45" height="45" viewBox="0 0 45 45" fill="none" xmlns="http://www.w3.org/2000/svg">
<g clip-path="url(#clip0_269_93)">
<path d="M22.499 27.0634C22.3517 27.0634 22.216 27.0089 22.1267 26.9143C21.7821 26.5741 21.4499 26.2411 21.1169 25.9071L21.0713 25.8616C20.8383 25.6286 20.6062 25.3955 20.3722 25.1634C20.2249 25.0214 20.1517 24.8446 20.1758 24.6875L20.1776 24.675C20.2017 24.4223 20.4446 24.2071 20.6981 24.2071C20.7196 24.2071 20.741 24.2089 20.7615 24.2116L20.7812 24.2143C20.9526 24.2277 21.1035 24.3759 21.2776 24.5464C21.3053 24.5741 21.333 24.6009 21.3606 24.6277L21.966 25.2089L21.9651 24.3696C21.9651 23.975 21.9651 23.5795 21.9651 23.1839C21.9651 22.6562 21.9651 22.1286 21.9642 21.6018L21.9633 21.2455H21.6071C20.558 21.2446 19.5088 21.2446 18.4597 21.2446L12.0847 21.2455C10.2553 21.2455 8.4267 21.2446 6.59634 21.2411H6.57045C6.44099 21.2411 6.30617 21.1812 6.20349 21.0759C6.10617 20.9768 6.05259 20.8491 6.05527 20.725C6.04813 20.0937 6.04902 19.4625 6.05081 18.8527V18.8411C6.0517 18.4161 6.05259 17.9911 6.05081 17.5661L6.04902 17.2125L5.69545 17.2107C5.19545 17.208 4.69456 17.208 4.19456 17.208L2.1517 17.2089C1.61509 17.2089 1.07849 17.208 0.541881 17.2054H0.515988C0.289202 17.2054 0.070452 17.0205 -0.000976562 16.7723V0.483036C0.0302734 0.236607 0.234738 0.03125 0.482059 0H9.11867C9.26509 0.0375 9.39367 0.1125 9.49367 0.216964C10.1062 0.832143 10.7142 1.43929 11.3213 2.04643L11.3562 2.08125C11.8981 2.62321 12.4401 3.16518 12.9812 3.70714C13.1133 3.83304 13.1821 4.00446 13.1749 4.18036C13.1749 5.84286 13.1749 7.49018 13.1749 9.13661V9.33304C13.1749 11.6375 13.174 13.9429 13.1767 16.2482C13.1758 16.2973 13.1758 16.3554 13.1767 16.4143C13.1785 16.6312 13.1794 16.8187 13.0963 16.9464C13.0008 17.1062 12.8169 17.2062 12.6231 17.2062H12.6017C12.0222 17.208 11.4517 17.208 10.883 17.208L8.77045 17.2071C8.34009 17.2071 7.91063 17.2071 7.48027 17.208L7.12402 17.2089L7.12313 17.5652C7.12224 18.3152 7.12224 19.0652 7.12313 19.8152L7.12402 20.1714H12.1892H21.9624L21.9633 19.8152C21.9651 19.0652 21.9642 18.3152 21.9633 17.5652V17.2098L21.608 17.2089C21.2642 17.208 20.9196 17.2071 20.5758 17.2071C20.2133 17.2071 19.8499 17.2071 19.4874 17.208C19.4874 17.208 18.7035 17.2089 18.399 17.2089C17.6097 17.2089 17.0008 17.2071 16.4249 17.2027C16.291 17.2027 16.1588 17.1411 16.0597 17.0348C15.9562 16.9232 15.9026 16.7795 15.9133 16.642L15.9142 16.6214L15.9133 14.9339C15.9115 10.2152 15.9097 5.33571 15.9151 0.539286C15.9088 0.28125 16.116 0.04375 16.3803 0.000892857H25.0463C25.1892 0.0455357 25.3115 0.119643 25.4017 0.213393L26.4928 1.30446C27.291 2.10268 28.0901 2.90089 28.8865 3.7C29.0213 3.82857 29.0928 4.00179 29.0856 4.17768C29.0847 5.66964 29.0856 7.14732 29.0856 8.62589C29.0865 11.2893 29.0865 13.9536 29.0838 16.6179L29.0847 16.6366C29.0946 16.7812 29.0401 16.925 28.9356 17.0375C28.8374 17.1429 28.708 17.2027 28.5803 17.2027C27.9981 17.2071 27.3883 17.2089 26.5999 17.2089C26.2955 17.2089 25.5115 17.208 25.5115 17.208C25.149 17.208 24.7856 17.2071 24.4231 17.2071C24.0794 17.2071 23.7347 17.2071 23.391 17.2089L23.0356 17.2098L23.0347 17.5652C23.033 18.3152 23.0338 19.0643 23.0347 19.8143V20.1714L23.391 20.1732H32.8088H37.874L37.8749 19.817C37.8758 19.0661 37.8758 18.317 37.874 17.5661L37.8731 17.2107L37.5178 17.2098C37.0874 17.2089 36.6571 17.2089 36.2258 17.2089L34.1106 17.2098C33.5401 17.2098 32.9696 17.2089 32.3999 17.2071H32.3713C32.1829 17.2071 31.9999 17.1089 31.908 16.958C31.8196 16.8223 31.8213 16.6348 31.8231 16.4179C31.8231 16.3589 31.824 16.3 31.8231 16.242C31.8258 13.7054 31.8258 11.1607 31.8249 8.61696C31.824 6.12589 31.824 3.30179 31.8276 0.546429C31.8196 0.30625 32.0017 0.0776786 32.2544 0H40.9535C41.0946 0.0410714 41.2142 0.110714 41.3026 0.201786L42.4999 1.39821C43.2633 2.16161 44.0267 2.925 44.7901 3.68839C44.8955 3.78929 44.9687 3.92232 44.9999 4.06875V16.7598C44.9401 17.0143 44.7213 17.2045 44.4838 17.2045H44.4722C43.8937 17.208 43.3222 17.2089 42.7517 17.2089C42.5722 17.2089 40.7794 17.2071 40.5999 17.2071C40.1687 17.2071 39.7365 17.208 39.3053 17.2098L38.9517 17.2116L38.9499 17.5652C38.9481 17.9866 38.949 18.408 38.9499 18.8295V18.8875C38.9508 19.483 38.9526 20.0991 38.9446 20.7036C38.949 20.8446 38.8981 20.9696 38.7981 21.0732C38.6954 21.1795 38.5597 21.2411 38.4258 21.2411H38.408C36.5481 21.2446 34.699 21.2455 32.849 21.2455L26.8249 21.2446C25.6812 21.2446 24.5383 21.2446 23.3946 21.2464H23.0383V21.6027C23.0374 22.5295 23.0365 23.4536 23.0383 24.3777L23.0401 25.233L23.6472 24.6304L23.7169 24.5607C23.8803 24.3964 24.0481 24.2268 24.2178 24.2143L24.2374 24.2125C24.2633 24.2089 24.2838 24.2071 24.3044 24.2071C24.5562 24.2071 24.799 24.4214 24.8231 24.6661L24.8249 24.6821C24.8642 24.9232 24.6767 25.1259 24.5937 25.2027C24.3392 25.4536 24.0946 25.6991 23.849 25.9455L23.8321 25.9625C23.524 26.2714 23.2053 26.5911 22.8874 26.9027C22.7865 27.008 22.6508 27.0634 22.499 27.0634ZM40.4633 16.1366C41.499 16.1366 42.5347 16.1366 43.5704 16.1375H43.9276L43.9285 13.6045C43.9294 10.6152 43.9303 7.52411 43.9258 4.48571V4.3375L43.8204 4.23304C43.1901 3.60625 42.5624 2.97768 41.9338 2.34821L41.8356 2.25C41.4785 1.89196 41.1213 1.53482 40.7633 1.17679L40.6588 1.07232C40.6588 1.07232 36.9776 1.07143 36.3758 1.07143C35.3338 1.07143 34.2919 1.07232 33.2499 1.07589L32.8937 1.07679L32.8946 1.43304C32.8981 4.45446 32.8981 7.55446 32.8972 10.2893C32.8972 12.1187 32.8963 13.9482 32.8972 15.7777V16.1339H33.2535C34.5919 16.1348 35.9303 16.1348 37.2687 16.1348L40.4633 16.1366ZM1.07134 1.07143V1.42857C1.07134 3.34107 1.07134 5.25446 1.07134 7.16696V7.52679C1.07134 10.2777 1.07045 13.0295 1.07224 15.7804V16.1375H1.42938C2.46509 16.1366 3.50081 16.1366 4.53652 16.1366H7.73027C9.06867 16.1366 10.4071 16.1366 11.7455 16.1357H12.1026V12.9625C12.1026 10.1402 12.1026 7.31696 12.1035 4.49464V4.34643L11.649 3.89107C10.7633 3.00268 9.84724 2.08393 8.92849 1.17321L8.82402 1.06964H8.6767C7.72224 1.07143 6.76867 1.07143 5.81599 1.07143H2.57224H1.07134ZM20.8999 1.07143C19.7133 1.07143 18.5267 1.07143 17.3401 1.07232H16.983V1.42946C16.9838 3.95 16.9838 6.46964 16.9838 8.98929V9.57679C16.9838 11.6446 16.9838 13.7116 16.9838 15.7795V16.1366H20.7794H28.0133V15.7795C28.0142 12.0161 28.0151 8.25179 28.0133 4.4875V4.33929L27.349 3.67589C26.5838 2.91161 25.7919 2.12143 25.0115 1.33393C24.9919 1.31518 24.9812 1.30446 24.9705 1.29375C24.891 1.21429 24.7428 1.06696 24.5088 1.06696C24.4865 1.06696 24.4642 1.06875 24.4419 1.07143H20.8999Z" fill="#1B2D4F"/>
<path d="M4.13705 6.63215C3.80491 6.63215 3.50044 6.39822 3.42991 6.0884C3.38259 5.91429 3.41027 5.7259 3.50402 5.5625C3.59866 5.39733 3.75044 5.27679 3.92098 5.23125C4.01919 5.20536 4.12902 5.20358 4.24598 5.20179L4.29062 5.2009C4.75312 5.20268 5.22009 5.20268 5.68616 5.20268L7.62366 5.20179C8.08973 5.20179 8.5558 5.20179 9.02277 5.20358H9.03437C9.04598 5.20268 9.05848 5.20268 9.07009 5.20268C9.24687 5.20268 9.42455 5.28036 9.55937 5.41697C9.69152 5.55 9.76562 5.725 9.76384 5.89643V5.90625C9.77187 6.08215 9.70044 6.2634 9.56741 6.40179C9.42902 6.54643 9.2433 6.63036 9.05759 6.63036C9.04598 6.63036 9.03527 6.63036 9.02366 6.62947H9.01384C8.28884 6.63125 7.56384 6.63215 6.83794 6.63215L4.18705 6.63036H4.1808C4.16652 6.63125 4.15223 6.63215 4.13705 6.63215Z" fill="#1B2D4F"/>
<path d="M22.9702 6.63214C22.5265 6.63214 22.0827 6.63125 21.639 6.63035C21.1952 6.62946 20.7515 6.62857 20.3077 6.62857H20.0872H20.0818C20.0693 6.62946 20.0559 6.62946 20.0434 6.62946C19.6997 6.62946 19.3809 6.36339 19.3336 6.0366L19.3318 6.02768C19.2979 5.85714 19.3398 5.67053 19.447 5.51339C19.5523 5.35893 19.7095 5.25178 19.8773 5.21875C20.4631 5.20446 21.0845 5.19821 21.8898 5.19821C22.2702 5.19821 22.6506 5.2 23.03 5.20089C23.4104 5.20268 23.7916 5.20357 24.172 5.20357C24.4193 5.20357 24.6666 5.20268 24.914 5.20178H24.9256C24.9407 5.20089 24.955 5.2 24.9702 5.2C25.3166 5.2 25.6372 5.48482 25.6711 5.82232L25.672 5.83214C25.7006 6.01875 25.6398 6.21696 25.5041 6.375C25.3693 6.53303 25.1845 6.6241 24.9961 6.6241C24.4041 6.62946 23.7604 6.63214 22.9702 6.63214Z" fill="#1B2D4F"/>
<path d="M40.7186 6.63215C40.2883 6.63126 39.8624 6.63036 39.4356 6.63036L37.6052 6.63126C37.0659 6.63126 36.5276 6.63036 35.9892 6.62858C35.9892 6.62858 35.9588 6.62947 35.9481 6.62947C35.6097 6.62947 35.2945 6.36429 35.2463 6.03751C35.1758 5.68126 35.4267 5.30179 35.7722 5.22411C36.3258 5.20626 36.9133 5.19822 37.6758 5.19822C38.032 5.19822 38.3883 5.20001 38.7445 5.20179C39.1017 5.20358 39.4579 5.20536 39.8151 5.20536C40.1159 5.20536 40.4168 5.20447 40.7177 5.2009L40.7293 5.20001C40.7552 5.19822 40.7811 5.19733 40.8079 5.19733C41.0856 5.19733 41.3168 5.3009 41.4436 5.48215L41.4499 5.49018C41.6668 5.76518 41.6249 6.20983 41.3588 6.44018L41.3517 6.44733C41.2249 6.57054 41.0267 6.63304 40.7615 6.63304C40.7463 6.63304 40.732 6.63215 40.7186 6.63215Z" fill="#1B2D4F"/>
<path d="M9.06379 12.0071C9.05129 12.0071 9.03879 12.0071 9.0254 12.0062H9.01468L6.21111 12.0071C5.51022 12.0071 4.80933 12.0062 4.10843 12.0045H4.09951C3.7754 12.0045 3.47093 11.742 3.42183 11.4187C3.38522 11.2357 3.42897 11.0446 3.54147 10.8857C3.65129 10.7304 3.81111 10.6259 3.98165 10.5973C4.58701 10.5821 5.25308 10.575 6.07629 10.575C6.49683 10.575 6.91826 10.5768 7.33968 10.5786C7.76111 10.5804 8.18254 10.5821 8.60397 10.5821C8.74504 10.5821 8.88701 10.5821 9.02808 10.5812C9.04593 10.5804 9.05576 10.5804 9.06558 10.5804C9.25308 10.5804 9.43879 10.6661 9.57719 10.8152C9.71022 10.9589 9.77897 11.1437 9.76469 11.3223L9.76379 11.3321C9.75665 11.692 9.42897 12.0071 9.06379 12.0071Z" fill="#1B2D4F"/>
<path d="M20.1917 12.0152C19.9399 12.0152 19.605 11.9589 19.4452 11.6928L19.4417 11.6866L19.4372 11.6803C19.305 11.4991 19.2845 11.2527 19.3827 11.0196C19.4792 10.7911 19.6649 10.6339 19.8827 10.5982C20.4711 10.5821 21.1193 10.5741 21.922 10.5741C22.3238 10.5741 22.7265 10.5759 23.1283 10.5777C23.5309 10.5795 23.9336 10.5812 24.3363 10.5812C24.5292 10.5812 24.722 10.5812 24.9149 10.5795H24.9247C24.9372 10.5786 24.9506 10.5786 24.9631 10.5786C25.314 10.5786 25.6318 10.8527 25.6711 11.1902L25.6729 11.2C25.705 11.3893 25.6461 11.5902 25.5095 11.7518C25.3756 11.9107 25.1908 12.0027 25.0024 12.0027C24.4417 12.0062 23.8881 12.0071 23.3336 12.0071L21.6158 12.0062C21.1961 12.0062 20.7756 12.0071 20.3559 12.0089L20.3425 12.0098C20.2899 12.0125 20.2399 12.0152 20.1917 12.0152Z" fill="#1B2D4F"/>
<path d="M35.9713 12.0054C35.9606 12.0062 35.949 12.0062 35.9383 12.0062C35.599 12.0062 35.2874 11.7366 35.2445 11.4062C35.1793 11.0482 35.4365 10.6723 35.7847 10.6C36.3454 10.5812 36.94 10.5732 37.7115 10.5732C38.0758 10.5732 38.4401 10.575 38.8034 10.5768C39.1686 10.5786 39.5329 10.5804 39.8981 10.5804C40.1722 10.5804 40.4463 10.5795 40.7204 10.5768L40.7329 10.5759C40.7579 10.5741 40.7829 10.5732 40.8079 10.5732C41.0454 10.5732 41.349 10.667 41.4909 10.9312L41.4945 10.9375L41.4981 10.9437C41.624 11.1384 41.624 11.4018 41.499 11.6321C41.374 11.8616 41.1525 12.0045 40.9222 12.0045H40.8999C40.1659 12.0071 39.4383 12.008 38.7115 12.008C38.2561 12.0071 35.9713 12.0054 35.9713 12.0054Z" fill="#1B2D4F"/>
<path d="M9.41075 45C9.15539 44.9366 8.96254 44.7098 8.96879 44.4768C8.96343 41.0839 8.96432 37.6429 8.96522 34.3152V34.2473C8.96522 32.8893 8.96611 31.5313 8.96611 30.1732L8.96522 30.1527C8.9545 30.0116 9.00807 29.8705 9.10986 29.7607C9.21432 29.6482 9.35361 29.5839 9.49289 29.5839C9.50361 29.5839 9.51343 29.5839 9.52414 29.5848L9.54289 29.5857C13.8661 29.5839 18.1831 29.583 22.5 29.583C26.817 29.583 31.134 29.5839 35.4509 29.5857L35.4697 29.5848C35.4858 29.5839 35.4956 29.5839 35.5063 29.5839C35.6456 29.5839 35.7849 29.6482 35.8893 29.7607C35.992 29.8714 36.0456 30.0125 36.0357 30.1491L36.0349 30.1688C36.0349 31.5643 36.0349 32.9545 36.0357 34.3438C36.0366 37.6536 36.0384 41.0768 36.0322 44.4741C36.0357 44.7027 35.8527 44.9241 35.6027 45H9.41075ZM10.0384 38.183C10.0358 39.0777 10.0366 39.9723 10.0366 40.867C10.0366 41.767 10.0375 42.667 10.0349 43.567L10.034 43.925H10.392C12.034 43.925 13.675 43.9259 15.317 43.9268H16.1206C18.7384 43.9277 21.3554 43.9295 23.9733 43.9295C28.0858 43.9295 31.467 43.9259 34.6125 43.9196L34.9715 43.9188L34.9688 43.5598C34.9607 42.5732 34.9616 41.5688 34.9634 40.5973V40.5268C34.9643 39.7589 34.9652 38.9643 34.9616 38.183L34.9599 37.8277C34.9599 37.8277 26.5349 37.8286 22.5 37.8286C18.4652 37.8286 10.0393 37.8277 10.0393 37.8277L10.0384 38.183ZM10.0366 30.6554V31.0125C10.0358 32.1018 10.0366 33.192 10.0366 34.2813V36.7554C10.0366 36.7554 18.4643 36.7563 22.5 36.7563C26.5357 36.7563 34.9634 36.7554 34.9634 36.7554V30.6554C34.9634 30.6554 26.5357 30.6545 22.5 30.6545C18.4643 30.6545 10.0366 30.6554 10.0366 30.6554Z" fill="#1B2D4F"/>
<path d="M13.0681 34.4196C12.8841 34.4196 12.7002 34.3339 12.5636 34.1857C12.4297 34.0402 12.3609 33.8536 12.3761 33.6741C12.3868 33.4116 12.552 33.1679 12.7868 33.0598C12.8788 33.0134 12.9725 32.9911 13.0725 32.9911C13.3913 32.9911 13.7556 33.2375 13.7913 33.6036L13.7931 33.6161C13.8243 33.8036 13.7654 34.0027 13.6306 34.1634C13.4957 34.3241 13.3091 34.417 13.119 34.4188H13.1082C13.0948 34.4196 13.0815 34.4196 13.0681 34.4196Z" fill="#1B2D4F"/>
<path d="M16.6478 34.4205C16.5139 34.4205 16.3889 34.3804 16.2862 34.3045L16.279 34.2991L16.2719 34.2946C16.0273 34.1482 15.9549 33.8714 15.9683 33.6607C15.9817 33.4491 16.0898 33.1821 16.3523 33.0688L16.3594 33.0652L16.3665 33.0616C16.4549 33.0134 16.5523 32.9893 16.6549 32.9893C16.8576 32.9893 17.0648 33.0848 17.2103 33.2446C17.3389 33.3866 17.4005 33.5607 17.3835 33.7348L17.3826 33.7429V33.75C17.3799 34.1455 16.9933 34.4205 16.6478 34.4205Z" fill="#1B2D4F"/>
<path d="M20.2937 34.4241C19.9803 34.4241 19.6928 34.2357 19.5945 33.9652C19.524 33.7955 19.5294 33.6009 19.6062 33.425C19.6829 33.2473 19.8222 33.1098 19.9883 33.0473C20.1035 33.0018 20.232 32.9929 20.3883 32.9929L20.5642 32.9938C20.5874 32.9938 20.6097 32.9938 20.6329 32.9929C21.8258 32.9938 23.0213 32.9946 24.2178 32.9946L28.9329 32.9938C29.9142 32.9938 30.8937 32.9938 31.8749 32.9946H31.8874C31.9017 32.9938 31.9151 32.9929 31.9294 32.9929C32.1142 32.9929 32.299 33.0777 32.4365 33.2259C32.5695 33.3696 32.6383 33.5545 32.6249 33.733L32.624 33.7429C32.6169 34.1036 32.2865 34.4205 31.9169 34.4205C31.907 34.4205 31.8776 34.4196 31.8776 34.4196C30.3597 34.4223 28.8419 34.4232 27.324 34.4232L22.1928 34.4223H20.3437H20.3383C20.324 34.4232 20.3088 34.4241 20.2937 34.4241Z" fill="#1B2D4F"/>
<path d="M13.0643 41.5884C12.9393 41.5884 12.7598 41.5571 12.6125 41.4089L12.6063 41.4027L12.5991 41.3973C12.3741 41.2107 12.35 40.9196 12.4018 40.7089C12.4545 40.4973 12.6125 40.2509 12.9 40.1911L12.9081 40.1893L12.9161 40.1866C12.9724 40.1696 13.0313 40.1607 13.0893 40.1607C13.2991 40.1607 13.5161 40.275 13.6563 40.4589C13.7875 40.6313 13.8331 40.8375 13.7822 41.0259L13.7804 41.0339L13.7786 41.042C13.7179 41.3964 13.3643 41.5884 13.0643 41.5884Z" fill="#1B2D4F"/>
<path d="M16.6504 41.5893C16.5379 41.5893 16.3736 41.5625 16.2316 41.4357L16.2245 41.4295L16.2173 41.4241C15.987 41.2554 15.9414 40.9723 15.9763 40.7634C16.0111 40.5527 16.1468 40.2964 16.4218 40.2098L16.4298 40.2071L16.4379 40.2036C16.5111 40.1732 16.5879 40.1571 16.6673 40.1571C16.8798 40.1571 17.1004 40.2723 17.2432 40.4571C17.32 40.5571 17.4388 40.7625 17.37 41.0187L17.3682 41.0259L17.3673 41.0339C17.3075 41.383 16.9557 41.5893 16.6504 41.5893Z" fill="#1B2D4F"/>
<path d="M20.297 41.5964C20.0015 41.5964 19.7274 41.4312 19.6158 41.1848C19.5274 41.0116 19.522 40.808 19.5979 40.6179C19.6747 40.4241 19.8211 40.2768 20.0006 40.2125C20.1122 40.1723 20.2354 40.1643 20.3863 40.1643L20.5568 40.1652C20.5809 40.1652 20.6042 40.1652 20.6283 40.1643C22.014 40.1652 23.4042 40.1661 24.7934 40.1661H29.2658C30.1354 40.1661 31.88 40.167 31.88 40.167H31.8863C31.9006 40.1661 31.9149 40.1652 31.9283 40.1652C32.1104 40.1652 32.2926 40.2473 32.43 40.3911C32.5631 40.5304 32.6336 40.7116 32.6247 40.8866V40.8973C32.6265 41.0705 32.5542 41.2393 32.4211 41.3741C32.2827 41.5134 32.0997 41.5937 31.9176 41.5937C31.9077 41.5937 31.8783 41.5929 31.8783 41.5929C30.1667 41.5964 28.4542 41.5973 26.7417 41.5973C25.6765 41.5973 20.3408 41.5964 20.3408 41.5964C20.3265 41.5955 20.3113 41.5964 20.297 41.5964Z" fill="#1B2D4F"/>
</g>
<defs>
<clipPath id="clip0_269_93">
<rect width="45" height="45" fill="white"/>
</clipPath>
</defs>
</svg>
