<svg width="1224" height="437" viewBox="0 0 1224 437" fill="none" xmlns="http://www.w3.org/2000/svg">
<mask id="mask0_419_251" style="mask-type:alpha" maskUnits="userSpaceOnUse" x="0" y="0" width="1224" height="437">
<rect y="0.981934" width="1224" height="436" rx="20" fill="white"/>
</mask>
<g mask="url(#mask0_419_251)">
<g filter="url(#filter0_f_419_251)">
<path d="M1219.31 69.3973C1240.36 115.612 1193.83 171.955 1162.12 186.404C1130.41 200.852 1087.63 175.101 1066.57 128.887C1045.51 82.6723 1082.25 7.03657 1113.96 -7.4122C1145.67 -21.861 1276.34 -57.4251 1219.31 69.3973Z" fill="#0769C7"/>
</g>
<g filter="url(#filter1_f_419_251)">
<path d="M132.018 423C111.33 452.982 52.4292 496.86 0.458824 461C-51.5116 425.14 -14.688 327.982 5.99994 298C26.6879 268.017 80.048 271.07 132.018 306.93C183.989 342.789 152.706 393.018 132.018 423Z" fill="#0769C7"/>
</g>
</g>
<defs>
<filter id="filter0_f_419_251" x="880.367" y="-203.197" width="533.172" height="573.619" filterUnits="userSpaceOnUse" color-interpolation-filters="sRGB">
<feFlood flood-opacity="0" result="BackgroundImageFix"/>
<feBlend mode="normal" in="SourceGraphic" in2="BackgroundImageFix" result="shape"/>
<feGaussianBlur stdDeviation="90" result="effect1_foregroundBlur_419_251"/>
</filter>
<filter id="filter1_f_419_251" x="-206.082" y="97.5696" width="546.512" height="556.883" filterUnits="userSpaceOnUse" color-interpolation-filters="sRGB">
<feFlood flood-opacity="0" result="BackgroundImageFix"/>
<feBlend mode="normal" in="SourceGraphic" in2="BackgroundImageFix" result="shape"/>
<feGaussianBlur stdDeviation="90" result="effect1_foregroundBlur_419_251"/>
</filter>
</defs>
</svg>
