<svg width="100" height="100" viewBox="0 0 100 100" fill="none" xmlns="http://www.w3.org/2000/svg">
<g clip-path="url(#clip0_195_220)">
<path d="M66.1986 0H71.9057C74.0893 0.0898438 76.2807 0.294922 78.3998 0.851563C84.8412 2.40039 90.6557 6.34766 94.5385 11.707C97.9916 16.3711 99.8549 22.1289 99.9994 27.916V28.9648C99.8764 33.7871 98.5893 38.6113 96.0678 42.7402C94.3705 45.7012 92.0561 48.2715 89.4545 50.4668C89.4506 53.7637 89.4506 57.0606 89.4545 60.3574C89.4486 61 89.4975 61.6523 89.3666 62.2871C89.1479 63.1836 88.2065 63.8047 87.2963 63.6875C86.6459 63.6367 86.1459 63.1719 85.7045 62.7383C83.4154 60.4375 81.1107 58.1523 78.8178 55.8535C75.9154 56.6094 72.9096 56.8418 69.9193 56.7754C66.6264 56.8027 63.2885 56.7949 60.0756 55.9746C56.5033 55.1367 53.1088 53.5664 50.1361 51.4238C44.6342 47.4863 40.599 41.5313 39.0697 34.9336C37.7318 29.3477 38.1557 23.3535 40.269 18.0098C42.2279 13.0137 45.6518 8.60352 49.9975 5.45313C54.6596 2.00391 60.4135 0.144531 66.1986 0ZM50.5854 9.9707C47.0033 13.0898 44.3529 17.2734 43.099 21.8574C41.3236 28.1465 42.2279 35.1445 45.5775 40.7578C48.4701 45.7285 53.1869 49.6055 58.6225 51.4863C61.7904 52.6523 65.1986 52.9336 68.5522 52.8691C71.6088 52.8965 74.7143 52.916 77.6869 52.0957C78.39 51.9297 79.1127 51.6016 79.8471 51.7891C80.3197 51.8945 80.7006 52.2207 81.0424 52.5488C82.5404 54.0508 84.0424 55.5527 85.5443 57.0527C85.5483 54.6328 85.5443 52.2109 85.5443 49.791C85.5209 49.1758 85.6928 48.5234 86.1674 48.1035C86.8197 47.5 87.5229 46.957 88.1947 46.375C90.8549 43.9141 92.9897 40.875 94.3236 37.5C95.6908 34.1094 96.2553 30.4023 96.0131 26.7559C95.601 19.791 91.9799 13.1094 86.4037 8.92383C82.3256 5.78125 77.2201 4.02148 72.0775 3.92969C70.0522 3.89453 68.0229 3.88281 65.9994 3.93945C60.3666 4.06641 54.8139 6.24805 50.5854 9.9707Z" fill="#004F9A"/>
<path d="M65.9641 14.6016C68.052 13.5196 70.6204 13.4141 72.7923 14.3145C74.5833 15.0332 76.0872 16.418 76.9895 18.1192C78.1477 20.2988 78.2415 23.0078 77.2512 25.2676C76.261 27.6211 74.097 29.3594 71.6419 29.9922C71.6419 31.3965 71.6477 32.7988 71.6419 34.2031C71.6555 34.9043 71.4309 35.6602 70.8333 36.0801C70.0423 36.6914 68.7903 36.5332 68.1829 35.7383C67.6829 35.1446 67.7356 34.3203 67.7317 33.5938C67.7591 32.2266 67.6946 30.8574 67.7649 29.4922C67.8645 27.9531 69.052 26.5996 70.5423 26.2422C71.6282 25.9824 72.6399 25.3711 73.2727 24.4356C74.2278 23.0723 74.3001 21.1465 73.4251 19.7246C72.638 18.3789 71.0852 17.5254 69.5247 17.6113C67.7239 17.6485 66.0384 18.9395 65.5305 20.666C65.2552 21.5059 65.4622 22.5313 64.8196 23.2285C64.138 24.0528 62.7532 24.1055 62.0149 23.3262C61.4622 22.8145 61.3704 22.0078 61.4778 21.2969C61.6712 18.4863 63.4407 15.8496 65.9641 14.6016Z" fill="#AE0F0A"/>
<path d="M10.4863 34.373C12.0996 33.9648 13.7734 33.9707 15.4258 33.9844C21.2891 33.9844 27.1523 33.9844 33.0156 33.9844C33.6367 33.9805 34.3125 34.0898 34.7578 34.5684C35.5488 35.3086 35.502 36.7051 34.666 37.3926C34.1719 37.8613 33.4551 37.8926 32.8144 37.8945C26.8203 37.8848 20.8281 37.8945 14.8359 37.8887C11.7168 37.6641 8.46484 38.8047 6.39648 41.1953C4.78125 43.002 3.88281 45.4277 3.90625 47.8477C3.9043 57.291 3.9082 66.7363 3.90625 76.1816C3.9082 77.0977 3.87891 78.0176 3.98633 78.9297C4.31445 81.248 5.44141 83.4629 7.21094 85.0098C9.01953 86.625 11.4453 87.5234 13.8672 87.5C18.0371 87.5117 22.209 87.4785 26.377 87.5137C27.2734 87.4727 27.8652 88.1894 28.3437 88.8398C29.8105 90.3574 31.3281 91.8301 32.8164 93.3301C32.8438 91.9922 32.7695 90.6523 32.8477 89.3164C32.8926 88.25 33.9082 87.4492 34.9453 87.5059C41.8516 87.4902 48.7578 87.5059 55.6641 87.5C58.4707 87.5312 61.2754 86.3105 63.1309 84.2012C64.7461 82.3926 65.6484 79.9688 65.625 77.5469C65.6328 73.1777 65.6133 68.8086 65.6328 64.4395C65.5605 63.4004 66.375 62.3809 67.4375 62.334C68.5293 62.2188 69.5332 63.1855 69.5156 64.2715C69.5527 68.6328 69.5195 72.9961 69.5312 77.3574C69.5469 79.3125 69.207 81.2812 68.4316 83.082C66.8164 86.9121 63.3672 89.9121 59.3359 90.9453C57.6328 91.4199 55.8496 91.4238 54.0957 91.4062C48.3047 91.4062 42.5156 91.4062 36.7246 91.4062C36.7109 93.623 36.7422 95.8398 36.7051 98.0547C36.7285 99.0879 35.8379 99.9414 34.8262 100H34.7227C34.1348 99.9395 33.6035 99.6543 33.1953 99.2344C30.5801 96.6269 27.9727 94.0117 25.3574 91.4062C21.5937 91.4062 17.8301 91.4062 14.0684 91.4062C12.7109 91.4062 11.3457 91.2734 10.0371 90.9023C6.45312 89.9316 3.33203 87.4102 1.60156 84.1289C0.609375 82.2949 0.103516 80.2246 0 78.1504V47.2891C0.0957031 45.0977 0.65625 42.9141 1.74414 41.002C3.57227 37.707 6.81445 35.2305 10.4863 34.373Z" fill="#004F9A"/>
<path d="M68.83 40.5215C70.1503 39.7891 71.9081 41.082 71.5917 42.5606C71.4335 43.8926 69.7284 44.6524 68.6366 43.8692C67.3983 43.1465 67.5155 41.0977 68.83 40.5215Z" fill="#AE0F0A"/>
<path d="M12.3416 49.6406C21.6366 49.5645 30.9373 49.6367 40.2362 49.6055C40.9412 49.6035 41.742 49.5899 42.2908 50.1133C43.119 50.8027 43.1619 52.1895 42.3787 52.9297C41.9295 53.4102 41.2518 53.5254 40.6248 53.5176C31.3065 53.5098 21.9881 53.5254 12.6698 53.5098C11.7381 53.5508 10.7987 52.9238 10.617 51.9824C10.3377 50.8887 11.2088 49.6953 12.3416 49.6406Z" fill="#004F9A"/>
<path d="M12.3459 60.5781C25.8733 60.5039 39.4065 60.5742 52.9358 60.543C53.6409 60.541 54.4397 60.5293 54.9866 61.0508C55.8518 61.7676 55.8518 63.2344 54.9866 63.9492C54.4905 64.4219 53.7717 64.459 53.1272 64.457C39.6428 64.4434 26.1584 64.4629 12.676 64.4473C11.7424 64.4902 10.7991 63.8633 10.6174 62.9199C10.3362 61.8242 11.2131 60.6309 12.3459 60.5781Z" fill="#004F9A"/>
<path d="M12.3397 71.5156C23.3261 71.4394 34.3182 71.5117 45.3065 71.4805C46.0077 71.4746 46.8026 71.4883 47.3358 72.0176C48.1561 72.7305 48.1561 74.1406 47.3378 74.8574C46.6971 75.4844 45.7362 75.3848 44.9139 75.3945C34.1737 75.3828 23.4315 75.4004 12.6893 75.3848C11.8085 75.4238 10.91 74.8887 10.66 74.0195C10.2655 72.8945 11.1444 71.5703 12.3397 71.5156Z" fill="#004F9A"/>
<path d="M53.5539 71.5156C55.007 71.3301 56.1633 73.0879 55.4074 74.3438C54.8058 75.6133 52.8176 75.7051 52.1027 74.4961C51.2707 73.3574 52.1476 71.5703 53.5539 71.5156Z" fill="#004F9A"/>
</g>
<defs>
<clipPath id="clip0_195_220">
<rect width="100" height="100" fill="white"/>
</clipPath>
</defs>
</svg>
