<svg width="32" height="26" viewBox="0 0 32 26" fill="none" xmlns="http://www.w3.org/2000/svg">
<g clip-path="url(#clip0_622_84)">
<path d="M1.64141 0.256916C2.43567 -0.112554 3.40208 -0.0799718 4.16868 0.344212C4.8652 0.71737 5.3773 1.39914 5.56418 2.16513C12.3468 2.16636 19.1295 2.16636 25.9115 2.16451C26.1432 1.1766 26.943 0.34913 27.9267 0.096464C28.842 -0.155587 29.8761 0.096464 30.5689 0.746264C31.108 1.23623 31.4308 1.94136 31.4757 2.66616V23.2759C31.4369 24.42 30.6402 25.486 29.5521 25.8419C29.1064 26.0042 28.6262 26.0036 28.1584 25.9981C19.8174 25.9981 11.4757 25.9975 3.13466 25.9987C2.66129 26.0098 2.17748 25.9649 1.73977 25.7725C0.757998 25.3717 0.0627054 24.3856 0 23.3288V2.71165C0.0295084 1.66963 0.690374 0.682329 1.64141 0.256916ZM1.48833 1.94381C1.31005 2.21062 1.22337 2.53214 1.22952 2.85243C1.23013 8.9035 1.22952 14.9552 1.22952 21.0069C2.1744 20.3952 3.47646 20.397 4.40598 21.0388C4.40536 15.1003 4.40598 9.16108 4.40598 3.22251C4.40229 2.93726 4.42749 2.64525 4.34266 2.36861C4.18651 1.81164 3.69839 1.3684 3.13097 1.2602C2.51068 1.12741 1.83137 1.41082 1.48833 1.94381ZM27.0709 2.79034C27.0685 8.87338 27.0709 14.9564 27.0697 21.0388C27.9992 20.3964 29.297 20.3989 30.2461 20.9989C30.2449 14.9306 30.248 8.86231 30.2449 2.79403C30.2597 1.94996 29.4937 1.20303 28.6515 1.22946C27.816 1.21041 27.0568 1.95181 27.0709 2.79034ZM5.63549 3.39587C5.63488 9.67133 5.63549 15.9468 5.63549 22.2216C5.64902 22.4417 5.55742 22.671 5.37053 22.7958C5.16828 22.9397 4.90455 22.912 4.67094 22.9009C4.44963 22.8843 4.27257 22.7245 4.16929 22.5376C3.91233 22.1134 3.44634 21.8263 2.95207 21.7876C2.20883 21.7022 1.40718 22.1897 1.26271 22.9477C1.06722 23.8692 1.90514 24.787 2.82851 24.7667C11.413 24.7704 19.9981 24.7674 28.5832 24.768C29.2459 24.7913 29.8976 24.3702 30.1343 23.7481C30.3273 23.2895 30.2603 22.7288 29.9363 22.3452C29.3738 21.6573 28.2248 21.5872 27.5818 22.202C27.3285 22.3999 27.2504 22.7872 26.9135 22.8794C26.6006 22.9329 26.2004 22.9581 25.9803 22.6802C25.8082 22.486 25.8414 22.2136 25.8402 21.9745C25.8408 15.7814 25.8408 9.58895 25.8402 3.39587C19.1055 3.39465 12.3702 3.39465 5.63549 3.39587Z" fill="#1B2D4F"/>
<path d="M15.337 5.77691C15.5577 5.58141 15.9137 5.5808 16.1362 5.77383C17.6873 7.00028 19.234 8.23226 20.7844 9.45993C20.7955 9.12857 20.7635 8.79476 20.8016 8.46525C20.8742 8.0927 21.3309 7.87324 21.6672 8.0509C21.8855 8.15418 22.0232 8.39209 22.0133 8.63185C22.0158 9.23247 22.0145 9.83309 22.0133 10.4337C22.2629 10.6612 22.6521 10.8296 22.6791 11.2108C22.7234 11.5852 22.3791 11.9011 22.0152 11.887C22.0121 14.1026 22.0182 16.3182 22.0115 18.5338C22.0164 18.8602 21.7213 19.1473 21.3961 19.1362C20.0221 19.1375 18.6481 19.1393 17.2748 19.1356C16.9539 19.1368 16.6717 18.8479 16.6772 18.5282C16.6729 17.2956 16.6778 16.0631 16.6754 14.8305C16.0502 14.8292 15.4256 14.8292 14.8004 14.8305C14.7973 16.0661 14.8047 17.3024 14.7973 18.5381C14.7979 18.8528 14.5206 19.1362 14.204 19.135C12.8301 19.1399 11.4555 19.1375 10.0808 19.1362C9.80052 19.1436 9.53371 18.9321 9.47777 18.6573C9.45072 18.4938 9.46302 18.3278 9.46117 18.1637C9.46117 16.0698 9.46179 13.9759 9.46117 11.8821C9.25892 11.8815 9.04744 11.8132 8.9251 11.6429C8.71424 11.389 8.76527 10.9729 9.0333 10.7798C11.1321 9.1089 13.2364 7.44475 15.337 5.77691ZM10.6907 11.0319C10.6907 13.3237 10.6901 15.6155 10.6913 17.9073C11.6509 17.9079 12.6106 17.9079 13.5702 17.9073C13.5721 16.6797 13.5684 15.4526 13.5721 14.2249C13.5573 13.8862 13.8635 13.5819 14.2022 13.6009C15.2264 13.5997 16.2506 13.5997 17.2748 13.6016C17.6129 13.5831 17.9166 13.8862 17.9037 14.2231C17.908 15.4514 17.9037 16.6797 17.9055 17.9073C18.8651 17.9079 19.8248 17.9079 20.7844 17.9073C20.785 15.6137 20.785 13.3206 20.7844 11.0276C19.1012 9.696 17.4211 8.36013 15.7391 7.02671C14.0565 8.36197 12.3733 9.69661 10.6907 11.0319Z" fill="#1B2D4F"/>
<path d="M7.80124 19.8161C8.03608 19.561 8.48547 19.5782 8.70309 19.8469C8.90596 20.0706 8.84326 20.3909 8.85248 20.6657C13.4429 20.6657 18.0327 20.6657 22.6231 20.6657C22.6341 20.4038 22.5708 20.1045 22.746 19.8813C22.9194 19.6342 23.2852 19.5586 23.5434 19.7147C23.7309 19.8204 23.852 20.0295 23.8501 20.2446C23.8551 20.9252 23.852 21.6051 23.852 22.2856C23.868 22.5795 23.6516 22.866 23.3602 22.9188C23.0485 22.9908 22.7091 22.7744 22.6421 22.4627C22.6089 22.2752 22.6262 22.084 22.6231 21.8959C18.0327 21.8953 13.4429 21.8953 8.85248 21.8959C8.85186 22.2032 8.90535 22.5826 8.6244 22.7934C8.28505 23.0977 7.67829 22.8635 7.6328 22.4104C7.60944 21.733 7.63034 21.0536 7.62173 20.3756C7.61128 20.1752 7.64939 19.9594 7.80124 19.8161Z" fill="#1B2D4F"/>
</g>
<defs>
<clipPath id="clip0_622_84">
<rect width="31.4757" height="26" fill="white"/>
</clipPath>
</defs>
</svg>
