<svg width="45" height="45" viewBox="0 0 45 45" fill="none" xmlns="http://www.w3.org/2000/svg">
<g clip-path="url(#clip0_269_131)">
<path d="M26.7397 45C26.646 45 26.5543 44.9912 26.4655 44.9727L26.4508 44.9697C25.9082 44.8751 25.4397 44.4593 25.2797 43.9342C24.4755 41.4436 23.7562 39.2057 23.0789 37.0878L22.8027 36.2231L21.9887 36.6262C21.6686 36.7853 21.3563 36.9531 21.0537 37.1171C20.7238 37.2957 20.3822 37.4802 20.0436 37.6431C19.8904 37.7154 19.7362 37.7954 19.5878 37.8715C19.1945 38.0745 18.8236 38.2648 18.4557 38.3332C18.2859 38.3673 18.1268 38.3839 17.9628 38.3839C17.2806 38.3839 16.6179 38.1116 16.1456 37.6373C14.018 35.5136 11.8952 33.3899 9.77151 31.2662L7.38819 28.8819C6.55764 28.104 6.37123 26.7191 6.96462 25.7295L6.98121 25.7022L6.99585 25.6729C7.3999 24.8531 7.84885 23.9913 8.36709 23.0378L8.81603 22.2121L7.92205 21.9222C6.69232 21.5231 5.44113 21.121 4.23093 20.7335L4.21239 20.7276C3.39062 20.4641 2.56788 20.1996 1.74709 19.9352C1.65437 19.9039 1.55287 19.8727 1.45137 19.8415C1.12442 19.7409 0.815036 19.6463 0.611059 19.4823L0.595443 19.4706C0.154305 19.1407 -0.0828556 18.5102 0.026453 17.9705C0.0830593 17.6631 0.252878 17.3644 0.505654 17.1234L0.526149 17.1029C2.71427 14.9353 4.97462 12.6944 7.45163 10.8225C8.53496 10.0222 9.72076 9.21998 11.0315 8.78958C11.4141 8.67051 11.8289 8.61195 12.2954 8.61195C13.1903 8.61195 14.1243 8.83545 15.0008 9.07749C15.9045 9.33905 16.8239 9.68747 17.713 10.0242L18.2254 10.2184L18.5796 9.89926C21.3026 7.44177 24.3359 5.3815 27.5956 3.77407C30.9237 2.13347 34.406 1.00818 37.9448 0.429427C39.4302 0.18153 40.8727 0.0380628 42.2323 0.00195194C42.2693 0.000975969 42.3006 0 42.3318 0C43.1438 0 43.9109 0.334758 44.3852 0.89594C44.8127 1.3888 45.0343 2.05832 44.9952 2.73857C44.8576 6.97721 43.8934 11.2412 42.1298 15.4193C40.4501 19.3935 38.0844 23.0953 35.096 26.4205L34.7798 26.7728L35.0569 27.5106C35.6864 29.1864 36.3384 30.9187 36.3842 32.6696C36.4282 33.8535 35.8289 35.0119 35.2365 35.9908C34.2547 37.5778 33.0523 39.0134 31.5493 40.6784C30.4582 41.8681 29.2284 43.1427 27.7918 44.5725C27.5195 44.8438 27.135 45 26.7397 45ZM32.9771 28.633C30.5099 31.0124 27.6278 33.2249 24.4091 35.2101L23.8889 35.5311L24.8092 38.3946C25.2777 39.8508 25.7462 41.3079 26.2137 42.7641L26.6011 43.9733L27.5049 43.0812C29.1347 41.4738 30.6485 39.8518 32.0051 38.2609C33.0298 37.0234 33.9307 35.8952 34.6207 34.5766C35.013 33.8359 35.1809 33.1566 35.1321 32.4998C35.0667 31.2818 34.6743 30.1467 34.2947 29.0497L33.8575 27.7839L32.9771 28.633ZM16.9634 36.6886C17.2191 36.9688 17.5832 37.1288 17.9638 37.1288C18.1824 37.1288 18.3981 37.0751 18.5884 36.9727C22.7353 34.967 26.4518 32.6032 29.6354 29.9486C33.6271 26.6274 36.8439 22.8045 39.195 18.5873C41.9805 13.6021 43.5537 8.14935 43.746 2.81665C43.7587 2.56192 43.787 2.02123 43.3517 1.61523C43.1009 1.37221 42.7642 1.24729 42.3572 1.24729C42.2498 1.24729 42.1503 1.2551 42.0624 1.26193C42 1.26681 41.9414 1.27169 41.9004 1.27169L41.8565 1.27071L41.8311 1.27169C39.4019 1.36733 36.8195 1.79969 34.1542 2.55899C29.3592 3.94487 24.737 6.39553 20.7863 9.64648C15.6605 13.8432 11.3672 19.4833 8.0255 26.4117C7.73368 26.9514 7.84982 27.616 8.31048 28.0367L9.94133 29.6685C12.2807 32.0089 14.6211 34.3502 16.9634 36.6886ZM12.3295 9.85827C11.7888 9.85827 11.2501 9.97929 10.7699 10.2086C9.27864 10.9065 7.99036 11.9634 6.85336 12.8965C5.34451 14.1681 3.82297 15.5823 1.91495 17.4855L1.00828 18.3902L9.46896 21.1063L9.79005 20.5861C11.782 17.3596 13.9936 14.4785 16.3661 12.023L17.2113 11.1475L16.0636 10.7435C15.0661 10.3931 13.936 9.9949 12.7111 9.87779C12.5891 9.8651 12.4593 9.85827 12.3295 9.85827Z" fill="#1B2D4F"/>
<path d="M31.0223 19.09C30.1762 19.09 29.3485 18.884 28.6302 18.4956C27.5635 17.9334 26.7027 16.9741 26.2654 15.8605C25.7374 14.539 25.798 12.9941 26.4255 11.7253C26.9115 10.7474 27.6767 9.95782 28.5785 9.50204C29.1758 9.19949 29.8199 9.01211 30.4943 8.94476C30.6651 8.92817 30.8418 8.91939 31.0165 8.91939C32.0773 8.91939 33.1236 9.2317 33.9629 9.79776C35.0941 10.5668 35.8846 11.8551 36.0759 13.2429C36.2594 14.4824 35.9646 15.7892 35.2658 16.8306C34.528 17.9295 33.3764 18.7103 32.1076 18.9728C31.7514 19.0519 31.3873 19.09 31.0223 19.09ZM30.3021 10.1764C28.7473 10.4556 27.4776 11.736 27.2131 13.2908C26.9418 14.6893 27.5342 16.207 28.6888 17.058C29.3358 17.545 30.1644 17.8144 31.0184 17.8144C31.6967 17.8144 32.3584 17.6465 32.9323 17.3274C34.5661 16.4539 35.3264 14.3253 34.6237 12.5822C34.083 11.1231 32.6005 10.1042 31.0165 10.1042C30.7764 10.1052 30.5363 10.1296 30.3021 10.1764Z" fill="#1B2D4F"/>
<path d="M2.61303 43.0705C2.34756 43.0705 2.09674 42.9251 2.00305 42.7172L1.99426 42.6996C1.91521 42.5386 1.9318 42.2722 1.94839 41.9911C1.95327 41.9091 1.95815 41.832 1.96108 41.7549C2.18555 38.4054 3.02001 35.4033 4.44102 32.8326L4.45078 32.814C4.55716 32.6032 4.726 32.4549 4.89387 32.4198L4.91729 32.4149C4.96316 32.4032 5.00513 32.3983 5.04709 32.3983C5.25888 32.3983 5.47847 32.5203 5.579 32.695C5.69319 32.8824 5.69904 33.1361 5.59754 33.3216C4.40783 35.415 3.63194 37.9457 3.29523 40.8375L3.18104 41.8174L4.16091 41.7042C7.04002 41.3694 9.57169 40.5935 11.6837 39.397C11.7666 39.3482 11.8574 39.3247 11.956 39.3247C12.2039 39.3247 12.444 39.4663 12.5279 39.6615L12.5367 39.6819L12.5464 39.7024C12.6782 39.9689 12.5367 40.3681 12.2595 40.5066L12.2351 40.5193C9.54046 42.0213 6.26218 42.8997 2.74771 43.0617L2.71941 43.0627L2.6911 43.0666C2.6667 43.0695 2.63938 43.0705 2.61303 43.0705Z" fill="#1B2D4F"/>
</g>
<defs>
<clipPath id="clip0_269_131">
<rect width="45" height="45" fill="white"/>
</clipPath>
</defs>
</svg>
