<svg width="50" height="50" viewBox="0 0 50 50" fill="none" xmlns="http://www.w3.org/2000/svg">
<g clip-path="url(#clip0_352_145)">
<path d="M21.2153 29.324C21.0284 29.324 20.863 29.2407 20.7725 29.1002C20.6083 28.8765 20.6571 28.5349 20.8737 28.3492L26.0237 23.2004C29.086 20.1393 32.1484 17.0769 35.2084 14.0145L35.306 13.9169L34.9358 12.5363C34.4883 10.8629 34.0396 9.18948 33.5885 7.51726C33.5183 7.25899 33.5231 7.08522 33.6016 6.96739C33.7016 6.8198 33.8361 6.69007 33.9777 6.55201C34.0349 6.49726 34.0896 6.4437 34.142 6.38895L35.4536 5.07855C37.0663 3.46584 38.6802 1.85432 40.2917 0.240419C40.3822 0.147584 40.4976 0.0690312 40.6452 0H40.8523C41.0832 0.067841 41.2534 0.236848 41.2962 0.442752C41.5652 1.43656 41.827 2.41847 42.0901 3.40038L42.121 3.51702C42.4162 4.62033 42.7114 5.72364 43.0101 6.82576L43.0458 6.95787L43.1779 6.99357C45.2274 7.53987 47.3722 8.11592 49.555 8.70388C49.7585 8.74792 49.918 8.90383 50.0001 9.13235V9.26684C49.9787 9.42633 49.8942 9.58224 49.7633 9.70721C48.7278 10.7403 47.6983 11.771 46.6688 12.8017L46.3831 13.0874C45.3274 14.1431 44.2729 15.1988 43.216 16.2521C43.0934 16.3901 42.9339 16.4627 42.7602 16.4639C42.6959 16.4639 42.6328 16.4532 42.5709 16.433C41.6235 16.1807 40.6916 15.9307 39.7609 15.6796C38.6683 15.3856 37.4293 15.0524 36.2141 14.7322L36.082 14.6977L35.9856 14.7941C33.1517 17.6244 30.3203 20.457 27.4888 23.2885L26.9675 23.8098C25.1977 25.5796 23.4267 27.3506 21.6569 29.1204C21.5426 29.2537 21.3891 29.324 21.2153 29.324ZM40.1822 1.90193C39.4229 2.65532 38.673 3.40752 37.947 4.13473C36.9187 5.16544 35.8547 6.23185 34.7978 7.27089L34.7002 7.3661L34.7335 7.49821C35.0548 8.77053 35.4024 10.0571 35.7392 11.3021C35.9392 12.0412 36.1367 12.7708 36.3295 13.5004L36.3653 13.6348L36.4997 13.6706C37.3519 13.8955 38.2029 14.124 39.0539 14.3537L39.0884 14.3632C40.2036 14.6632 41.3557 14.9738 42.4936 15.2678L42.6257 15.3023L42.7221 15.2047C43.829 14.0883 44.9834 12.935 46.0022 11.9186C46.7021 11.2199 47.4019 10.5201 48.1006 9.82028L48.391 9.52987L47.9946 9.42276C47.221 9.21447 46.4462 9.00619 45.6714 8.7991L45.5012 8.75387C44.4907 8.48369 43.4814 8.21352 42.4721 7.93978C42.2615 7.88979 42.0972 7.71126 42.0484 7.48512C41.7485 6.36753 40.4762 1.61628 40.4762 1.61628L40.1822 1.90193Z" fill="#1B2D4F"/>
<path d="M20.8831 50C16.0105 49.9274 11.1271 48.0874 7.48631 44.9512C4.77386 42.6482 2.67793 39.706 1.42228 36.4425C0.533206 34.1574 0.0547489 31.6949 0 29.1228V28.429C0.0559391 25.8486 0.539157 23.379 1.43418 21.0926C2.92192 17.234 5.6427 13.7801 9.09545 11.3652C12.4339 9.01811 16.5318 7.672 20.6332 7.57678C20.8427 7.57083 21.0545 7.56726 21.2628 7.56726C24.8012 7.56726 28.3123 8.46943 31.4187 10.175C31.4604 10.1988 31.5044 10.2226 31.5484 10.2464C31.8103 10.3868 32.0793 10.532 32.1459 10.807C32.2007 10.9843 32.1721 11.1747 32.0697 11.3402C31.9674 11.5056 31.8079 11.6163 31.6329 11.6437C31.5877 11.6544 31.5508 11.658 31.5127 11.658C31.3271 11.658 31.1414 11.5544 30.9629 11.4544L30.8784 11.4068C27.9767 9.76912 24.6299 8.90385 21.2009 8.90385C18.9871 8.90385 16.8281 9.26329 14.787 9.97264C10.807 11.3247 7.28517 13.9895 4.87265 17.478C2.70174 20.5927 1.44965 24.3942 1.3473 28.1814C1.24137 31.5151 1.98524 34.8382 3.49917 37.7898C5.11426 40.9629 7.56129 43.6515 10.5761 45.5642C13.692 47.5613 17.4756 48.6622 21.2283 48.6622C22.0495 48.6622 22.8743 48.6099 23.6813 48.5075C27.4923 48.0457 31.2069 46.4009 34.1407 43.8741C36.7793 41.6163 38.7872 38.7003 39.9476 35.4392C41.8722 30.1012 41.3532 23.98 38.5587 19.0645C38.4432 18.8896 38.2111 18.4647 38.4444 18.1362C38.5587 17.9434 38.7658 17.8327 39.005 17.8327C39.2526 17.8327 39.4704 17.9541 39.5739 18.1505C40.8641 20.3583 41.7317 22.7815 42.1531 25.3571C42.8636 29.7001 42.1935 34.2407 40.2642 38.1409C38.517 41.6949 35.6867 44.8001 32.2923 46.8853C29.1133 48.8539 25.4035 49.931 21.5651 50.0012H20.8831V50Z" fill="#1B2D4F"/>
<path d="M21.2128 41.2568C18.8848 41.2568 16.5246 40.5724 14.5656 39.3299C12.1733 37.8195 10.3499 35.5272 9.43345 32.8755C8.47297 30.1333 8.52296 27.0114 9.57033 24.3108C10.4868 21.9138 12.1804 19.8071 14.3382 18.3789C16.1973 17.1447 18.3492 16.4341 20.5606 16.3246C20.7772 16.3127 20.9974 16.308 21.214 16.308C23.0671 16.308 24.9107 16.721 26.5449 17.5041C26.7162 17.5827 26.8388 17.7434 26.8853 17.9457C26.9305 18.1468 26.8876 18.3527 26.7686 18.4967C26.646 18.6634 26.4532 18.755 26.233 18.755C26.1057 18.755 25.9819 18.7229 25.8748 18.6634C24.4382 17.9945 22.8303 17.6434 21.2164 17.6434C20.3178 17.6434 19.4251 17.7505 18.5622 17.9624C15.8462 18.6193 13.4099 20.3511 11.8793 22.7136C10.5177 24.7857 9.89287 27.2947 10.1226 29.7762C10.344 32.4018 11.5746 34.9631 13.4968 36.8031C15.3487 38.5943 17.7708 39.6881 20.3166 39.8833C20.6153 39.9083 20.92 39.9214 21.2223 39.9214C23.6194 39.9214 25.9807 39.1335 27.8731 37.7041C30.0309 36.1009 31.5782 33.6788 32.1173 31.0628C32.6065 28.7336 32.3292 26.2723 31.3366 24.1299C31.1497 23.8038 31.2485 23.373 31.5437 23.198C31.6472 23.1278 31.7662 23.0921 31.8924 23.0921C32.1483 23.0921 32.3887 23.2349 32.4887 23.4468C33.6182 25.795 33.9645 28.5241 33.4646 31.1306C32.954 33.836 31.5234 36.3294 29.4358 38.1516C27.4232 39.9285 24.8536 41.0164 22.1983 41.2151C21.8757 41.2425 21.5425 41.2568 21.2128 41.2568Z" fill="#1B2D4F"/>
</g>
<defs>
<clipPath id="clip0_352_145">
<rect width="50" height="50" fill="white"/>
</clipPath>
</defs>
</svg>
