<svg width="23" height="26" viewBox="0 0 23 26" fill="none" xmlns="http://www.w3.org/2000/svg">
<g clip-path="url(#clip0_622_17)">
<path d="M11.0767 26C10.8852 26 10.6974 25.9669 10.5186 25.9016L10.351 25.831L6.12061 23.7552C4.33784 22.8807 2.82703 21.548 1.75121 19.9019C0.676144 18.2574 0.0728733 16.3552 0.00601017 14.4026L0 14.0353V5.43695C0 5.02375 0.119452 4.62107 0.344834 4.27173C0.569464 3.92314 0.889505 3.64517 1.26965 3.46787L1.45146 3.39199L10.2917 0.138985C10.5426 0.0465788 10.8055 0 11.0745 0C11.2728 0 11.4712 0.0262945 11.6627 0.077381L11.8671 0.141239L20.7058 3.39349C21.1025 3.53924 21.4465 3.79167 21.702 4.12223C21.9552 4.45053 22.1077 4.84119 22.143 5.25064L22.1512 5.44221V14.039C22.1512 15.9931 21.6126 17.9133 20.5939 19.5924C19.5744 21.2723 18.1101 22.6531 16.3582 23.5854L16.0261 23.756L11.7927 25.8332C11.5944 25.9301 11.381 25.985 11.1601 25.9962C11.1323 25.9992 11.1045 26 11.0767 26ZM1.93227 5.2296V14.0405C1.93227 15.6497 2.37402 17.2327 3.20943 18.6173C4.04485 20.0011 5.24538 21.1408 6.68181 21.9138L6.98382 22.0693L11.0752 24.0767L15.1614 22.0716C16.6271 21.3526 17.8712 20.258 18.7592 18.9057C19.648 17.5535 20.1499 15.9878 20.2122 14.3793L20.219 14.0465V5.23035L11.076 1.86616L1.93227 5.2296ZM9.6035 17.3108C9.36009 17.3108 9.12119 17.2304 8.92961 17.0839L8.82143 16.99L5.79005 14.0157C5.61425 13.8452 5.51358 13.619 5.50532 13.3786C5.49705 13.1382 5.58195 12.9068 5.74422 12.7258C5.908 12.5432 6.13413 12.4305 6.3813 12.408C6.4106 12.405 6.44065 12.4042 6.4707 12.4042C6.68406 12.4042 6.89367 12.4741 7.06195 12.6011L7.16638 12.692L9.60275 15.0825L15.6212 9.17678C15.7955 9.00624 16.0276 8.90783 16.2755 8.90031C16.2853 8.90031 16.2951 8.89956 16.3056 8.89956C16.5422 8.89956 16.7699 8.9837 16.9464 9.13696C17.1297 9.29548 17.2439 9.51485 17.2672 9.75301C17.2898 9.98815 17.2221 10.2203 17.0772 10.4089L16.9855 10.511L10.3781 16.996C10.1887 17.1823 9.93631 17.2928 9.66736 17.3085C9.64632 17.3108 9.62454 17.3108 9.6035 17.3108Z" fill="#1B2D4F"/>
</g>
<defs>
<clipPath id="clip0_622_17">
<rect width="22.1512" height="26" fill="white"/>
</clipPath>
</defs>
</svg>
