<svg width="54" height="45" viewBox="0 0 54 45" fill="none" xmlns="http://www.w3.org/2000/svg">
<g clip-path="url(#clip0_263_33)">
<path d="M53.5838 39.4738C53.5785 33.339 53.5795 27.1008 53.5806 21.0694C53.5817 15.5336 53.5817 9.9988 53.5785 4.4651C53.6009 2.52071 52.257 0.668957 50.4526 0.157275C50.0711 0.052784 49.6714 0 49.2665 0C48.1655 0 47.1136 0.377029 46.3047 1.06214C45.5225 1.7074 44.9726 2.67798 44.785 3.73797C38.788 3.73905 32.79 3.74013 26.793 3.74013C20.796 3.74013 14.799 3.74013 8.80208 3.73905C8.57614 2.42052 7.77896 1.2582 6.65459 0.61725C5.9512 0.213291 5.14016 0 4.30888 0C3.99981 0 3.69074 0.0301623 3.38913 0.0894097C1.87577 0.414732 0.580883 1.68909 0.166307 3.25861C-0.00421324 3.85 -0.00101598 4.4651 0.00324702 5.06188C0.00431277 5.15129 0.00431277 5.2407 0.00431277 5.32903C0.00431277 11.0545 0.00431277 16.781 0.00431277 22.5075C0.00431277 28.2341 0.00431277 33.9606 0.00431277 39.685C-0.00741048 40.3679 4.97782e-05 41.0929 0.227054 41.778C0.635237 43.1116 1.69566 44.2309 2.99267 44.6995C3.6641 44.9666 4.37815 45 4.92488 45C4.99095 45 5.05703 44.9989 5.12204 44.9989C9.32962 44.9978 13.5361 44.9978 17.7448 44.9978L34.2788 44.9989C39.1632 44.9989 44.0475 44.9989 48.9297 44.9968H48.9926C50.5304 44.9968 51.9926 44.2061 52.809 42.936C53.4112 42.0398 53.6787 40.8408 53.5838 39.4738ZM48.9872 43.5533H48.9318C43.5658 43.5544 38.2008 43.5544 32.8347 43.5544H5.33839H5.23075L4.86413 43.5554C4.56466 43.5554 4.21616 43.549 3.88044 43.4671C2.9639 43.2592 2.14754 42.6043 1.75001 41.7554C1.40364 41.0541 1.34716 40.1676 1.59015 39.2627C1.97702 38.0174 3.26018 37.1136 4.64139 37.1136C4.73091 37.1136 4.82044 37.1179 4.91316 37.1255C6.00342 37.1804 7.03187 37.8849 7.46882 38.8727C7.5722 39.1507 7.85569 39.3456 8.1573 39.3456C8.30544 39.3456 8.44398 39.2982 8.55802 39.2088C8.88094 39.002 8.86815 38.6293 8.85856 38.3287C8.85536 38.2415 8.85323 38.1585 8.85749 38.0767C8.85643 29.8294 8.85643 21.5822 8.85643 13.335V5.17714H27.0029C32.9029 5.17714 38.804 5.17714 44.7029 5.17822L44.704 15.0047C44.705 22.6928 44.705 30.381 44.7029 38.0724C44.705 38.1348 44.704 38.1995 44.7029 38.2663C44.6976 38.583 44.6923 38.9428 44.9768 39.1668C45.0972 39.281 45.2582 39.3446 45.433 39.3446C45.7186 39.3446 45.9818 39.1776 46.0895 38.9298C46.4294 38.165 47.0508 37.5747 47.7957 37.3086C48.1442 37.1783 48.5162 37.1126 48.903 37.1126C49.9496 37.1126 50.9663 37.6092 51.5557 38.4095C52.2943 39.4146 52.3539 40.8925 51.7006 42.0053C51.1592 42.9447 50.0945 43.5533 48.9872 43.5533ZM1.43029 17.7484C1.42922 13.6441 1.42815 9.54098 1.43029 5.43891C1.43348 5.28594 1.43135 5.12975 1.42922 4.97893C1.42389 4.53512 1.41856 4.0773 1.53686 3.64533C1.80863 2.59396 2.65483 1.73541 3.64172 1.50812C3.857 1.46179 4.0808 1.4381 4.30674 1.4381C5.35651 1.4381 6.34979 1.94008 6.89971 2.74908C7.20025 3.18966 7.37504 3.67657 7.40488 4.15163C7.40062 17.1656 7.40168 27.1762 7.40594 36.5664C6.61516 35.9912 5.64959 35.6766 4.66057 35.6766C4.49112 35.6766 4.3206 35.6863 4.15434 35.7046C3.1568 35.8005 2.17418 36.2519 1.42176 36.9553C1.43348 30.549 1.43135 24.0426 1.43029 17.7484ZM49.2782 1.43917C49.4796 1.43917 49.681 1.45749 49.8739 1.49303C50.8459 1.69124 51.7049 2.50778 52.0129 3.52899C52.1642 3.99112 52.16 4.49418 52.1557 4.97893C52.1546 5.09527 52.1536 5.21161 52.1546 5.3258C52.1568 9.57007 52.1557 13.8143 52.1546 18.0586C52.1536 24.2494 52.1525 30.6492 52.1589 36.9488C51.4342 36.2799 50.5336 35.8479 49.6 35.724C49.3794 35.6917 49.1535 35.6755 48.9275 35.6755C47.9119 35.6755 46.9357 35.9976 46.1555 36.5858C46.1566 31.2686 46.1566 25.9504 46.1566 20.6332C46.1566 15.2417 46.1566 9.85015 46.1577 4.45756C46.1481 3.67226 46.4742 2.87942 47.0316 2.33542C47.5975 1.76557 48.4171 1.43917 49.2782 1.43917Z" fill="#1B2D4F"/>
<path d="M40.5997 21.5779C40.1873 21.3226 39.7023 21.1869 39.1961 21.1869C38.659 21.1869 38.1272 21.3463 37.6998 21.6328C37.1541 21.9851 36.7438 22.5506 36.5392 23.2325C35.9008 23.2357 35.2635 23.2368 34.6251 23.2368C34.218 23.2368 31.9011 23.2357 31.9011 23.2357V14.0362C31.9426 14.0362 31.9842 14.0362 32.0258 14.0362C32.1398 14.0362 32.2538 14.0373 32.3679 14.0384C32.483 14.0395 32.597 14.0406 32.7121 14.0406C32.8879 14.0406 33.0329 14.0384 33.1608 14.033H33.1736C33.3494 14.033 33.5253 13.9544 33.6542 13.8176C33.7874 13.6754 33.8588 13.4869 33.8503 13.3059C33.8578 11.6297 33.8556 9.93309 33.8524 8.34742C33.8674 8.15567 33.8002 7.96931 33.6659 7.82173C33.5242 7.66661 33.327 7.57828 33.1235 7.57828C33.0979 7.57828 33.0723 7.57935 33.0457 7.58259C31.8222 7.58259 30.5987 7.58151 29.3752 7.58151C28.1496 7.58043 26.924 7.58043 25.6984 7.58043C23.9538 7.58043 22.2081 7.58151 20.472 7.5869C20.456 7.58582 20.4411 7.58474 20.4261 7.58474C20.2375 7.58474 20.0521 7.66876 19.9167 7.81527C19.7846 7.95854 19.7163 8.14705 19.7291 8.32479C19.7217 10.127 19.7217 11.7568 19.7291 13.3005C19.7195 13.4804 19.7867 13.6646 19.9124 13.8046C20.035 13.9404 20.1959 14.0201 20.3643 14.0276C20.5135 14.0362 20.6766 14.0406 20.8759 14.0406C20.9888 14.0406 21.1008 14.0395 21.2137 14.0384C21.3256 14.0373 21.4375 14.0362 21.5494 14.0362C21.5931 14.0362 21.6358 14.0362 21.6795 14.0373V23.2368L18.8819 23.2379C18.2691 23.2379 17.6562 23.2379 17.0445 23.2357C16.7237 22.0745 15.6697 21.2192 14.5112 21.1901C14.4579 21.1869 14.4036 21.1847 14.3503 21.1847C13.1226 21.1847 11.9918 22.095 11.7222 23.2993C11.4632 24.3205 11.8596 25.4839 12.6835 26.1259C13.1503 26.5127 13.7556 26.726 14.3897 26.7249C14.8821 26.7249 15.3564 26.5956 15.7571 26.3532C16.3528 26.0171 16.8164 25.4107 17.0392 24.6814C17.4186 24.6792 17.798 24.6792 18.1774 24.6792C18.5632 24.6792 18.9479 24.6792 19.3337 24.6803C19.7195 24.6814 20.1043 24.6814 20.4901 24.6814C21.2372 24.6814 21.8425 24.6792 22.3903 24.6738H22.4074C22.5875 24.6738 22.7665 24.5952 22.8987 24.4584C23.0287 24.3237 23.1012 24.146 23.098 23.9715C23.1065 21.9657 23.1054 19.9254 23.1044 17.953C23.1033 16.6474 23.1022 15.3418 23.1044 14.0362C23.2781 14.0362 23.4507 14.0362 23.6244 14.0362L25.0227 14.0373C25.3723 14.0373 25.7218 14.0362 26.0714 14.0341C26.0778 14.7494 26.0767 15.4754 26.0757 16.1778C26.0746 16.585 26.0746 16.9921 26.0757 17.4004H26.0746C25.9883 17.3972 25.8966 17.3929 25.8028 17.3929C25.5567 17.3929 24.9012 17.3929 24.8234 18.0187L24.8224 18.0306C24.8021 19.3868 24.8053 20.7667 24.8074 22.1003C24.8096 23.0645 24.8117 24.0609 24.8053 25.0433C24.8053 25.0767 24.8053 25.1101 24.8053 25.1446C24.8053 25.402 24.8042 25.7231 25.0526 25.9223C25.2465 26.085 25.4767 26.1065 25.676 26.1065C25.741 26.1065 25.8071 26.1044 25.8721 26.1012C25.9339 26.099 25.9957 26.0958 26.0554 26.0958C26.0618 26.0958 26.0682 26.0958 26.0746 26.0958C26.0767 27.2667 26.0778 28.5174 26.0735 29.768C25.1058 30.34 24.119 30.9142 23.164 31.4711C22.1953 32.0356 21.1945 32.6184 20.2098 33.2001C20.2098 33.1871 20.2109 33.1753 20.2109 33.1624C20.2162 32.9545 20.2215 32.739 20.181 32.5203C20.1075 32.2123 19.8048 31.9893 19.4606 31.9893C19.4392 31.9893 19.4169 31.9904 19.4051 31.9914C18.8808 31.9893 18.3564 31.9893 17.8332 31.9893L15.5866 31.9904C15.1198 31.9904 14.6519 31.9904 14.184 31.9882C14.184 31.9882 13.9336 31.9871 13.8888 31.9871C13.7471 31.9871 13.5798 31.9914 13.4092 32.0216C13.0831 32.0981 12.8529 32.4428 12.8838 32.794C12.8838 33.1031 12.8838 33.4123 12.8828 33.7215C12.8817 34.5143 12.8806 35.3351 12.887 36.1312C12.8721 36.3186 12.9392 36.5093 13.0714 36.6547C13.2089 36.8055 13.4007 36.8928 13.5968 36.8928C13.6139 36.8928 13.6309 36.8917 13.6394 36.8917C14.4558 36.895 15.2711 36.896 16.0875 36.896C16.7365 36.896 17.3856 36.895 18.0346 36.895L19.4062 36.8939C19.4286 36.896 19.4499 36.8971 19.4723 36.8971C19.8634 36.8971 20.1917 36.5976 20.2023 36.2335C20.2204 35.9179 20.2162 35.598 20.2119 35.2888C20.2098 35.1499 20.2077 35.012 20.2077 34.8741C21.2361 34.2579 22.2901 33.646 23.3101 33.0536C24.2191 32.5257 25.1581 31.9807 26.0778 31.4324C26.0746 32.0722 26.0757 32.7186 26.0767 33.3466C26.0789 34.2698 26.0799 35.2231 26.0693 36.1624C25.9925 36.1614 25.9158 36.1592 25.8391 36.1581C25.6973 36.1549 25.5567 36.1517 25.4149 36.1517C25.2359 36.1517 25.0856 36.1571 24.9449 36.1668C24.5953 36.1905 24.3055 36.5309 24.3246 36.8874C24.3183 38.0217 24.314 39.2315 24.3268 40.4455C24.3236 40.6222 24.3929 40.7924 24.5229 40.9259C24.6561 41.0638 24.8373 41.1425 25.0195 41.1425C25.0291 41.1425 25.0398 41.1425 25.043 41.1414C25.5332 41.1457 26.0245 41.1468 26.5148 41.1468C26.7982 41.1468 28.4608 41.1446 28.4608 41.1446C28.4832 41.1468 28.5045 41.1478 28.5269 41.1478C28.7273 41.1478 28.9234 41.0638 29.064 40.9173C29.1919 40.7848 29.2591 40.6146 29.2548 40.4423C29.2655 39.7399 29.2633 39.0257 29.2623 38.3341C29.2612 37.8892 29.2601 37.4443 29.2623 36.9994C29.2974 36.6418 29.0864 36.2249 28.675 36.1689C28.529 36.156 28.3692 36.1495 28.1709 36.1495C28.0708 36.1495 27.9706 36.1506 27.8704 36.1527C27.7713 36.1538 27.6722 36.156 27.573 36.156C27.5507 36.156 27.5272 36.156 27.5048 36.156C27.5038 34.5811 27.5038 33.0062 27.5048 31.4313C28.3777 31.9386 29.2505 32.4492 30.1223 32.9588C31.203 33.59 32.2837 34.2224 33.3665 34.8504C33.3729 35.0454 33.3707 35.2446 33.3697 35.4375C33.3675 35.7068 33.3654 35.9847 33.3835 36.2594C33.4059 36.6073 33.7182 36.8896 34.0784 36.8896C34.089 36.8896 34.0997 36.8896 34.105 36.8885C34.6624 36.8928 35.2496 36.896 36.0095 36.896C36.3793 36.896 36.7481 36.896 37.1179 36.895C37.4877 36.895 37.8565 36.8939 38.2263 36.8939C38.7016 36.8939 39.1769 36.895 39.6555 36.8971C39.6885 36.896 39.7226 36.896 39.7578 36.896C40.004 36.895 40.3109 36.8928 40.5049 36.6634C40.702 36.4641 40.701 36.1937 40.701 35.9556C40.701 35.9071 40.701 35.8587 40.702 35.807C40.6967 35.3362 40.6978 34.8579 40.6999 34.3947C40.702 33.8335 40.7041 33.2529 40.6924 32.6841C40.6924 32.3178 40.3695 31.9968 40.0018 31.9968H39.9816C39.4039 31.9914 38.7922 31.9882 37.9982 31.9882C37.6337 31.9882 37.2682 31.9882 36.9037 31.9893C36.5392 31.9904 36.1736 31.9904 35.8092 31.9904C35.3509 31.9904 34.8937 31.9893 34.4322 31.9871C34.396 31.9882 34.3597 31.9882 34.3224 31.9882C34.0699 31.9893 33.7544 31.9904 33.5551 32.2338C33.3483 32.4773 33.3611 32.7897 33.3718 33.0654C33.3739 33.1085 33.375 33.1505 33.3761 33.1915C33.3761 33.1915 28.7155 30.4736 27.5091 29.7702C27.5059 28.8621 27.5059 27.9551 27.507 27.047V26.1022C27.524 26.1022 27.5411 26.1022 27.5592 26.1033C27.6253 26.1044 27.6903 26.1055 27.7564 26.1055C27.9162 26.1055 28.0388 26.1001 28.1507 26.0893C28.4992 26.0645 28.7891 25.7241 28.771 25.3686C28.7784 24.0997 28.7773 22.8092 28.7763 21.5607C28.7752 20.4953 28.7752 19.4299 28.7784 18.3624V18.329C28.7763 18.0952 28.7742 17.8044 28.5631 17.6126C28.3681 17.4241 28.123 17.3983 27.9098 17.3983C27.8427 17.3983 27.7755 17.4015 27.7095 17.4036C27.6466 17.4058 27.5837 17.409 27.523 17.409C27.5176 17.409 27.5134 17.409 27.508 17.409C27.507 16.2844 27.507 15.1619 27.508 14.0373C28.0036 14.0373 28.4981 14.0362 28.9937 14.0362C29.4893 14.0362 29.9838 14.0362 30.4793 14.0373C30.4804 15.6575 30.4804 17.2765 30.4793 18.8967C30.4793 20.5502 30.4793 22.2027 30.4793 23.8562C30.4548 24.0609 30.5198 24.2688 30.6584 24.4293C30.7959 24.5877 30.9898 24.6792 31.1891 24.6792C31.2073 24.6792 31.2243 24.6782 31.2339 24.6771C31.7582 24.6803 32.2826 24.6803 32.808 24.6803C33.1618 24.6803 34.5793 24.6792 34.9342 24.6792C35.4703 24.6792 36.0063 24.6803 36.5413 24.6835C36.8675 25.8416 37.9598 26.7141 39.1141 26.7238C39.1567 26.726 39.1993 26.727 39.2409 26.727C40.5251 26.727 41.7187 25.6875 41.8999 24.4132C42.0981 23.309 41.5631 22.1424 40.5997 21.5779ZM37.8948 23.9543C37.8639 23.3855 38.286 22.8242 38.8604 22.6745C38.967 22.6422 39.0778 22.626 39.1918 22.626C39.8324 22.626 40.4153 23.1302 40.4931 23.7571C40.556 24.0997 40.4612 24.467 40.232 24.7665C40.0029 25.067 39.6725 25.2534 39.3208 25.2792C39.2739 25.2857 39.226 25.2889 39.178 25.2889C38.8338 25.2889 38.4895 25.1327 38.2359 24.8613C37.9971 24.606 37.8757 24.2882 37.8938 23.9683V23.9618L37.8948 23.9543ZM26.7929 37.6005C27.1404 37.6005 27.4889 37.5984 27.8363 37.5952C27.8374 38.2975 27.8374 39.0009 27.8363 39.7044C27.4878 39.7044 27.1404 39.7054 26.7929 39.7054C26.4455 39.7054 26.0981 39.7054 25.7496 39.7044C25.7485 39.0009 25.7485 38.2975 25.7496 37.5952C26.097 37.5984 26.4444 37.6005 26.7929 37.6005ZM26.2377 24.6577C26.2366 22.7208 26.2366 20.7861 26.2377 18.8493C26.4274 18.8557 26.616 18.8601 26.8004 18.8601C26.9837 18.8601 27.167 18.8568 27.3471 18.8493C27.3482 20.7851 27.3482 22.7208 27.3471 24.6566C27.167 24.6491 26.9837 24.6458 26.8004 24.6458C26.616 24.6469 26.4274 24.6501 26.2377 24.6577ZM32.4307 11.6243V12.5992C30.263 12.5981 28.0963 12.5981 25.9286 12.5981C24.3364 12.5981 22.7452 12.5981 21.153 12.5992C21.1519 11.7924 21.153 10.9866 21.153 10.1809V9.02499C23.033 9.02499 30.5497 9.02499 32.4297 9.02391C32.4318 9.89108 32.4318 10.7582 32.4307 11.6243ZM13.1076 24.2505C12.952 23.6289 13.3314 22.9244 13.9421 22.7101C14.0775 22.654 14.2224 22.625 14.3737 22.625C15.0633 22.625 15.6772 23.1991 15.6889 23.8638C15.7645 24.5166 15.2583 25.1715 14.6007 25.2674C14.5304 25.2814 14.4569 25.2879 14.3844 25.2879C13.7876 25.2889 13.227 24.8343 13.1076 24.2505ZM18.787 35.4536H17.3312H14.313C14.3119 34.7814 14.3119 34.1082 14.313 33.436C15.059 33.436 15.805 33.4349 16.5511 33.4349C17.2971 33.4349 18.0421 33.4349 18.7881 33.436C18.7806 34.0295 18.7806 34.6608 18.787 35.4536ZM34.7988 33.436C35.4298 33.4349 36.0617 33.4349 36.6927 33.4349C37.5527 33.4349 38.4139 33.4349 39.2739 33.436C39.2739 33.896 39.2739 34.3559 39.2739 34.8159V35.4526C38.789 35.4536 38.303 35.4536 37.8181 35.4536L34.7988 35.4526C34.8063 34.7825 34.8063 34.1049 34.7988 33.436Z" fill="#1B2D4F"/>
</g>
<defs>
<clipPath id="clip0_263_33">
<rect width="53.6029" height="45" fill="white"/>
</clipPath>
</defs>
</svg>
