<svg width="31" height="26" viewBox="0 0 31 26" fill="none" xmlns="http://www.w3.org/2000/svg">
<g clip-path="url(#clip0_622_55)">
<path d="M26.081 0.561871C26.1462 0.191026 26.5461 -0.0711346 26.9129 0.0171305C28.0558 0.243063 29.1993 0.468336 30.3401 0.701514C30.7222 0.765408 30.9896 1.17709 30.8921 1.55321C30.6655 2.69538 30.4389 3.83822 30.2058 4.97908C30.1412 5.3328 29.7717 5.58837 29.418 5.52777C29.0405 5.48298 28.752 5.0904 28.8298 4.71692C28.9384 4.12739 29.0662 3.54115 29.1808 2.95293C26.0053 5.1398 22.831 7.32864 19.6561 9.51617C19.4572 9.64725 19.2622 9.82444 19.0112 9.83432C18.7649 9.85276 18.5502 9.70785 18.3328 9.61563C15.9845 8.54789 13.6363 7.47817 11.2867 6.41372C7.88326 8.45501 4.48044 10.4983 1.07631 12.5383C0.768698 12.7398 0.320127 12.6463 0.119884 12.3374C-0.106707 12.0212 0.000660153 11.5351 0.339888 11.344C3.84019 9.24149 7.34313 7.14355 10.8434 5.03968C11.0536 4.89872 11.3328 4.88027 11.5594 4.99489C14.0058 6.10545 16.4529 7.21337 18.8966 8.3292C22.0808 6.14036 25.2623 3.94822 28.4438 1.75543C27.8351 1.62962 27.2232 1.51632 26.6152 1.38656C26.2523 1.31542 25.996 0.922836 26.081 0.561871Z" fill="#1B2D4F"/>
<path d="M23.8882 9.13018C23.8718 8.4122 24.489 7.75614 25.2076 7.73374C26.4124 7.72386 27.6178 7.72979 28.8232 7.73045C29.5662 7.71925 30.2255 8.38651 30.2091 9.12886C30.2124 14.2805 30.2091 19.4315 30.2104 24.5832C30.5549 24.6003 30.8776 24.8644 30.9066 25.2181C30.9672 25.6443 30.5707 26.0382 30.1458 25.9967C20.4617 25.9967 10.7782 25.9961 1.09411 25.9974C0.814822 25.9921 0.494696 26.0395 0.265471 25.8419C-0.0342356 25.618 -0.0889073 25.1444 0.152175 24.8585C0.279962 24.6826 0.493379 24.6102 0.700868 24.5832C0.702844 21.7606 0.697574 18.9381 0.703502 16.1163C0.705479 15.3904 1.35693 14.7495 2.08215 14.7561C3.28888 14.7554 4.49561 14.7508 5.70168 14.7587C6.40516 14.7818 7.01643 15.4102 7.0217 16.1137C7.02895 18.9395 7.02104 21.7659 7.025 24.5917C7.49333 24.5904 7.96166 24.593 8.42933 24.5904C8.43131 20.3603 8.4267 16.1301 8.43197 11.9C8.4346 11.182 9.07222 10.5457 9.78888 10.5418C10.9765 10.5365 12.1641 10.5398 13.3511 10.5398C13.9018 10.5345 14.432 10.8869 14.6408 11.3961C14.7778 11.6984 14.7528 12.037 14.7528 12.3598C14.7528 16.4371 14.7528 20.5144 14.7535 24.5911C15.2211 24.5917 15.6895 24.5917 16.1578 24.5911C16.1585 21.2172 16.1585 17.8427 16.1585 14.4689C16.1591 14.1461 16.1321 13.8076 16.2691 13.5059C16.4786 12.9961 17.0108 12.6404 17.5628 12.6483C18.7484 12.6476 19.9348 12.645 21.1211 12.6496C21.839 12.6522 22.474 13.2898 22.4793 14.0072C22.4859 17.5351 22.4786 21.0637 22.4826 24.5917C22.9503 24.5911 23.4186 24.5917 23.8863 24.5917C23.8889 19.4381 23.8849 14.2838 23.8882 9.13018ZM25.2919 9.13479C25.2926 14.2871 25.2919 19.4394 25.2926 24.5911C26.4631 24.5917 27.6342 24.5917 28.8047 24.5911C28.8054 19.4394 28.8047 14.2871 28.8054 9.13479C27.6342 9.13347 26.4631 9.13347 25.2919 9.13479ZM9.83499 11.9448C9.83433 16.1604 9.83499 20.3754 9.83499 24.5904C11.0055 24.593 12.176 24.5904 13.3471 24.5917C13.3485 20.3761 13.3478 16.1604 13.3471 11.9448C12.1766 11.9448 11.0061 11.9441 9.83499 11.9448ZM17.5635 14.0526C17.5635 17.5654 17.5628 21.0789 17.5641 24.5917C18.7353 24.5904 19.9058 24.593 21.0769 24.5904C21.0756 21.0776 21.0776 17.5654 21.0763 14.0526C19.9051 14.0519 18.7346 14.0519 17.5635 14.0526ZM2.10652 24.5911C3.27702 24.5917 4.44818 24.5917 5.61868 24.5911C5.61868 21.7811 5.62066 18.9704 5.61802 16.1598C4.44884 16.1591 3.279 16.1624 2.10982 16.1585C2.10125 18.9691 2.1085 21.7804 2.10652 24.5911Z" fill="#1B2D4F"/>
</g>
<defs>
<clipPath id="clip0_622_55">
<rect width="30.9125" height="26" fill="white"/>
</clipPath>
</defs>
</svg>
