<svg width="45" height="50" viewBox="0 0 45 50" fill="none" xmlns="http://www.w3.org/2000/svg">
<g clip-path="url(#clip0_355_162)">
<path d="M22.2642 4.74879C22.1262 4.74879 21.9859 4.68544 21.8784 4.57572C21.7755 4.47052 21.7189 4.33477 21.7223 4.20355C21.7144 3.46149 21.7156 2.71829 21.7167 1.99998V1.98528C21.7178 1.5475 21.7178 1.10973 21.7167 0.67309V0.654991C21.6929 0.374454 21.8536 0.110886 22.0877 0.0362267C22.1545 0.0124716 22.2121 0.00115967 22.2744 0.00115967C22.478 0.00115967 22.6759 0.113148 22.7676 0.279434C22.8456 0.409521 22.8467 0.58825 22.849 0.77716C22.849 0.822408 22.8501 0.868787 22.8513 0.914035C22.8456 1.40611 22.8467 1.91854 22.8479 2.41513V2.42758C22.849 3.01353 22.8513 3.60968 22.8411 4.19563C22.8434 4.33817 22.7868 4.47278 22.6827 4.58024C22.5764 4.68884 22.4361 4.75105 22.2992 4.75105L22.2642 4.74879Z" fill="#1B2D4F"/>
<path d="M9.49076 10.0575C9.33918 10.0575 9.2057 10.0043 9.11294 9.90707C8.27699 9.08242 7.4252 8.2295 6.5044 7.29627C6.37318 7.17183 6.32454 6.98971 6.36866 6.79288C6.41278 6.59719 6.54173 6.44334 6.70462 6.39018L6.72046 6.38452C6.77928 6.3619 6.83924 6.35059 6.90258 6.35059C7.06435 6.35059 7.2295 6.42411 7.34375 6.54741C8.18536 7.38563 9.01679 8.21593 9.84596 9.04736L9.8584 9.0598C10.0733 9.24984 10.1197 9.60277 9.96021 9.81657L9.95116 9.82901C9.8584 9.97041 9.68193 10.0575 9.49076 10.0575Z" fill="#1B2D4F"/>
<path d="M35.057 10.0586C34.9417 10.0586 34.8353 10.0247 34.7505 9.96136L34.7369 9.95231C34.6091 9.86634 34.5254 9.71363 34.5107 9.54169C34.496 9.37201 34.5503 9.21591 34.6589 9.11523C35.074 8.69329 35.4971 8.27136 35.8704 7.89806C36.2561 7.51346 36.6509 7.1198 37.0366 6.72727C37.0525 6.71144 37.0751 6.68994 37.0977 6.66732C37.2289 6.53723 37.3477 6.42072 37.4733 6.38C37.531 6.35964 37.5864 6.35059 37.6441 6.35059C37.8658 6.35059 38.0796 6.48407 38.1622 6.67524C38.2674 6.89243 38.2085 7.1707 38.0253 7.34038C37.4212 7.94897 36.8228 8.54624 36.2256 9.14238L35.5118 9.85503L35.505 9.86295C35.3964 9.98512 35.229 10.0586 35.057 10.0586Z" fill="#1B2D4F"/>
<path d="M22.2802 50C21.6761 50 21.0709 49.9989 20.468 49.9955H20.4397C19.7078 49.9955 19.0393 49.3621 19.0122 48.6392C18.9974 48.2546 18.9997 47.8621 19.0031 47.4843C19.0054 47.2275 19.0065 46.9707 19.0031 46.7139L18.9986 46.3836L18.6683 46.3791C18.5619 46.378 18.4556 46.3768 18.3493 46.3768C18.1977 46.3768 18.0461 46.378 17.8934 46.3791C17.7396 46.3802 17.5891 46.3813 17.4387 46.3813C17.1672 46.3813 16.9455 46.378 16.7418 46.3689C16.0043 46.3361 15.3708 45.6619 15.3855 44.9266C15.3821 43.0115 15.3821 41.1043 15.3833 39.196V39.0569C15.3833 37.9856 15.3844 36.9144 15.3833 35.8431V35.6395L15.2034 35.5434C12.3551 34.0264 10.0384 31.5955 8.68207 28.6985C7.32916 25.8558 6.90836 22.5912 7.49545 19.5053C8.07349 16.3628 9.68657 13.4353 12.0372 11.2611C14.4455 9.00889 17.5778 7.60395 20.8583 7.30418C21.3413 7.25554 21.8322 7.23065 22.3186 7.23065C25.0165 7.23065 27.6522 7.95462 29.9406 9.32336C32.9066 11.0812 35.1917 13.8153 36.3771 17.0223C37.5841 20.2338 37.6452 23.7891 36.5502 27.0345C35.3625 30.6453 32.7437 33.7448 29.3649 35.5411L29.185 35.6361V35.8397C29.1839 36.9845 29.185 38.1304 29.185 39.2752V39.3611C29.1861 41.1812 29.1861 43.0636 29.1816 44.9131C29.1963 45.6472 28.5481 46.3384 27.8219 46.3655C27.6194 46.3746 27.3988 46.378 27.1262 46.378C26.9758 46.378 26.8253 46.3768 26.6749 46.3757C26.521 46.3746 26.3695 46.3734 26.2179 46.3734C26.1115 46.3734 26.0052 46.3734 25.8989 46.3757L25.5686 46.3802L25.564 46.7105C25.5606 46.9673 25.5629 47.2241 25.564 47.4797C25.5663 47.8587 25.5697 48.2501 25.555 48.6347C25.5256 49.3587 24.8593 49.9933 24.1286 49.9933H24.1025C23.4894 49.9978 22.8842 50 22.2802 50ZM20.1343 48.8666H24.4317L24.4328 48.5284C24.434 48.163 24.4328 47.7976 24.4328 47.4322V46.3791H20.1343V48.8666ZM16.5145 45.2468H28.0527V42.7581H16.5145V45.2468ZM16.5145 41.6269H28.0527V39.1383H16.5145V41.6269ZM25.012 29.8749C25.1591 29.8749 25.3061 29.9485 25.4147 30.0763C25.5211 30.2019 25.5697 30.3557 25.5459 30.4982L25.5437 30.5175C25.5301 30.6883 25.3876 30.8432 25.2303 31.0005C24.7733 31.4518 24.3175 31.9088 23.8616 32.3647L23.7745 32.4518C23.4996 32.7278 23.2247 33.0027 22.9487 33.2776L22.8492 33.3771V33.5185C22.848 34.557 22.848 35.5943 22.848 36.6316V38.0094H28.0493L28.0515 37.6723C28.0538 37.3431 28.0527 37.0128 28.0515 36.6836C28.0493 36.2277 28.0481 35.7572 28.0561 35.2911V35.2741C28.0459 35.0264 28.2484 34.8251 28.4531 34.7346C30.3004 33.8205 31.9429 32.4891 33.2087 30.8817C35.1905 28.3818 36.2753 25.1205 36.1871 21.9351C36.117 18.6365 34.7969 15.3492 32.5661 12.9183C30.6114 10.7566 27.9837 9.24644 25.167 8.66614C24.2338 8.47044 23.2722 8.3709 22.3062 8.3709C20.1976 8.3709 18.0993 8.846 16.2396 9.7453C13.1627 11.217 10.6673 13.8719 9.39246 17.0291C8.11195 20.1534 8.02937 23.7597 9.16622 26.9236C10.3483 30.2878 12.8494 33.1203 16.0281 34.6938C16.1672 34.7549 16.4805 34.9223 16.4986 35.1893C16.5201 35.6791 16.5167 36.1893 16.5133 36.6836V36.696C16.5111 37.0184 16.5088 37.3488 16.5133 37.6745L16.5179 38.0094H21.7168V37.67C21.7168 37.0829 21.7168 36.4947 21.7168 35.9076V35.8895C21.7168 35.0988 21.7168 34.307 21.7157 33.5163V33.376L21.6162 33.2764C21.3583 33.0185 21.1003 32.7617 20.8424 32.5038C20.2938 31.9575 19.7271 31.393 19.1728 30.8274C18.976 30.634 18.9613 30.289 19.14 30.0876L19.1502 30.074C19.2463 29.9519 19.4058 29.8795 19.5789 29.8795C19.7259 29.8795 19.8639 29.9326 19.9556 30.0265C20.3764 30.4349 20.7915 30.8523 21.1931 31.2561C21.477 31.5423 21.7587 31.8251 22.0426 32.1057L22.2824 32.3421L22.5211 32.1045C23.1761 31.453 23.8299 30.798 24.4815 30.143C24.6512 29.9654 24.8118 29.8761 24.9566 29.8761L24.9849 29.8772L25.012 29.8749Z" fill="#1B2D4F"/>
<path d="M3.84842 22.8524C3.57128 22.849 3.29527 22.8479 3.01813 22.8479C2.78736 22.8479 2.55547 22.849 2.3247 22.849H2.1867C2.00231 22.849 1.81793 22.8502 1.63354 22.8502C1.21047 22.8502 0.867721 22.8479 0.556642 22.8423H0.537412C0.281761 22.8423 0.0328981 22.6172 0.00574934 22.3615C-0.0304489 22.1138 0.115475 21.857 0.33719 21.7654C0.674286 21.7258 1.0374 21.7088 1.51024 21.7088C1.72856 21.7088 1.94688 21.7122 2.1652 21.7167L2.23421 21.7179C2.45592 21.7212 2.67877 21.7258 2.90048 21.7258C3.07808 21.7258 3.23871 21.7235 3.39142 21.7179C3.43101 21.7201 3.48078 21.7212 3.53056 21.7212C3.60861 21.7212 3.68892 21.719 3.76811 21.7156C3.84164 21.7133 3.91516 21.7111 3.98982 21.7111C4.19118 21.7111 4.39705 21.728 4.54298 21.8491C4.66854 21.9475 4.74207 22.1081 4.7432 22.2823C4.7432 22.4554 4.67193 22.6149 4.55316 22.7088L4.53732 22.7224C4.39366 22.8524 4.13688 22.8524 3.88915 22.8524H3.84842Z" fill="#1B2D4F"/>
<path d="M42.1882 22.8513C41.5898 22.8513 40.9778 22.8491 40.3692 22.8434H40.3545C40.1 22.8434 39.8511 22.6183 39.824 22.3615C39.7855 22.1025 39.9495 21.8321 40.1871 21.7541C40.3092 21.7179 40.4597 21.7156 40.6294 21.7156H40.7199C40.7595 21.7156 40.7979 21.7156 40.8375 21.7145C41.109 21.7179 41.3907 21.719 41.6723 21.719C41.8884 21.719 42.1044 21.7179 42.3205 21.7179L42.9675 21.7167C43.377 21.7167 43.7074 21.719 44.0071 21.7235H44.0343C44.1666 21.7235 44.3024 21.7846 44.4064 21.8932C44.5128 22.0018 44.5705 22.1432 44.5659 22.2789C44.5682 22.4294 44.5105 22.5685 44.403 22.6783C44.299 22.7846 44.1632 22.8445 44.0309 22.8445H44.0173C43.4042 22.8491 42.7922 22.8513 42.1882 22.8513Z" fill="#1B2D4F"/>
<path d="M6.90499 38.2186C6.76585 38.2186 6.62219 38.1553 6.5136 38.0444C6.4084 37.9381 6.3507 37.8069 6.35184 37.6745V37.6542C6.33939 37.4585 6.48192 37.2809 6.60409 37.1655C7.3948 36.3782 8.17759 35.5942 8.93209 34.8341L8.94227 34.825C9.06557 34.7051 9.18209 34.592 9.30199 34.5569C9.36195 34.5366 9.41398 34.5275 9.46941 34.5275C9.69339 34.5275 9.90718 34.6644 9.98863 34.8601C10.0882 35.075 10.0305 35.3476 9.85515 35.5117C9.48525 35.8872 9.11535 36.256 8.75563 36.6146L8.70812 36.6621C8.32012 37.049 7.91854 37.4494 7.52715 37.8476L7.5147 37.86C7.34616 38.0274 7.17195 38.1994 6.99096 38.213L6.97286 38.2152C6.94571 38.2175 6.92535 38.2186 6.90499 38.2186Z" fill="#1B2D4F"/>
<path d="M37.6326 38.1914C37.472 38.1914 37.3238 38.1304 37.2254 38.024L37.2152 38.0138C36.834 37.6394 36.4517 37.2548 36.0806 36.8826L36.0512 36.8521C35.6678 36.4664 35.2741 36.0705 34.8827 35.687C34.6893 35.4969 34.54 35.3374 34.532 35.1644L34.5309 35.1463C34.4981 34.8804 34.6961 34.6033 34.9551 34.5456C35.006 34.532 35.0445 34.5264 35.0852 34.5264C35.2503 34.5264 35.4302 34.6157 35.5648 34.7639C35.9336 35.1361 36.2933 35.4947 36.6542 35.8544C37.0999 36.2978 37.5602 36.7571 38.0116 37.2164C38.127 37.3238 38.1881 37.4697 38.1892 37.6315C38.1903 37.7853 38.1326 37.929 38.0331 38.0229L38.0206 38.0353C37.9268 38.1338 37.7854 38.1914 37.6326 38.1914Z" fill="#1B2D4F"/>
</g>
<defs>
<clipPath id="clip0_355_162">
<rect width="44.5657" height="50" fill="white"/>
</clipPath>
</defs>
</svg>
